<svg xmlns="http://www.w3.org/2000/svg" xmlns:xlink="http://www.w3.org/1999/xlink" width="72" height="70"><defs><path id="a" d="M70.207 44.675c-.821-1.162-1.88-2.156-2.795-3.252-1.53-1.837-3.51-2.896-5.791-3.476-.164-.04-.32-.114-.428-.154.732-.307 1.55-.5 2.188-.942 2.47-1.716 4.502-3.865 5.246-6.854.36-1.45.44-3.054-.948-4.253-.977-.842-1.268-1.849-.837-3.178.48-1.49-.155-2.858-1.63-3.391-1.233-.446-1.46-1.35-1.593-2.37-.074-.566-.322-.895-.818-1.043-.62-.183-1.254-.307-1.887-.459.19-.563.509-1.1.53-1.644.087-1.982.13-3.97.078-5.953-.025-.877-.7-1.577-1.441-1.639-1.351-.108-2.327-.892-3.102-1.833-.78-.948-1.716-1.128-2.807-1.134-.32-.003-.672-.003-.945-.136-.762-.372-1.497-.362-2.259-.037-1.227.52-2.082 1.462-2.916 2.456-.514.613-1.122 1.146-1.812 1.84-.078-.39-.106-.511-.124-.632-.323-2.01-1.348-3.692-2.634-5.191-.96-1.118-2.228-1.636-3.793-1.298-.564.12-1.075.102-1.341.731-.224.53-.695.65-1.19.437-1.4-.604-2.752-.555-4.028.288-1.209.799-2.467 1.217-3.93.82-.681-.185-1.248.112-1.434.778-.214.759-.694 1.003-1.394 1.15-1.652.346-2.693 1.455-3.232 2.982-.378 1.078-.552 2.224-.85 3.332-.145.54-.362 1.06-.523 1.515-.942-.369-1.868-.623-2.686-1.075-1.175-.65-2.399-.86-3.71-.833-.625.012-1.084.208-1.511.688-.251.281-.707.48-1.091.532-.567.075-1.156-.043-1.735-.024-.316.009-.72.027-.927.213-.694.629-1.534 1.146-1.713 2.212-.112.663-.552.982-1.29 1.013-1.914.083-2.36.687-2.317 2.617.031 1.347-.031 2.685-.697 3.958-.858 1.645-.778 3.364.232 4.928.425.656 1.066 1.214 1.704 1.688 1.608 1.195 2.792 2.973 5.039 3.57-1.221.159-2.256.338-3.294.416-2.28.173-4.381.873-6.358 2.004-1.416.811-1.8 2.084-1.004 3.463.189.322.421.622.65.92.326.424.301.802.09 1.316-.207.51-.288 1.186-.136 1.706.21.707.74 1.31 1.05 1.995.22.486.502 1.066.422 1.549-.245 1.465.297 2.533 1.33 3.484 1.902 1.75 3.996 3.057 6.686 3.088.731.01 1.462.003 2.197.003-.161.3-.36.443-.558.58-1.853 1.29-3.483 2.74-3.929 5.128-.421 2.24.019 4.377 2.764 4.451 1.168.031 2.138.49 2.776 1.53.1.161.285.291.459.381 1.152.592 2.302 1.196 3.48 1.735.325.148.74.105 1.112.155 1.016.139 2.036.266 3.049.424.747.118 1.481.307 2.23.409.391.052.831.08 1.194-.04 1.57-.536 3.123-1.131 4.753-1.729 0 .32.015.713-.003 1.106-.044 1.022.161 1.908 1.196 2.397.155.074.266.23.409.332 1.853 1.316 3.882 1.907 6.135 1.387 1.463-.34 2.907-.771 4.35-1.195.942-.276 2.077-.276 2.343-1.645 1.645.895 2.814.015 3.926-.88a17.714 17.714 0 0 0 3.74-4.113c.812-1.242 1.967-2.335 1.623-3.998.868.195 1.64.43 2.43.535 1.66.22 3.101-.396 4.493-1.235.901-.546 1.766-1.193 2.996-.896.638.155 1.277-.164 1.766-.777a4.977 4.977 0 0 1 1.593-1.285c1.682-.864 2.132-1.691 1.825-3.609-.028-.17.173-.526.31-.551 1.289-.223 1.75-1.239 2.24-2.24v-.603c-.397-.883-.645-1.871-1.193-2.645zm-.133 4.131c-.267.27-.657.453-1.023.573-.92.304-1.199.787-.892 1.71.25.756-.199 1.846-.958 2.11-1.056.368-1.884.981-2.562 1.873-.19.248-.713.474-.986.387-1.329-.415-2.348.288-3.28.942-1.925 1.347-3.97 1.487-6.124.892-.4-.112-.793-.483-1.044-.84a72.328 72.328 0 0 1-2.575-3.896c-1.524-2.496-3.724-4.41-5.618-6.588-.074-.086-.167-.155-.353-.322.121 1.31.862 2.153 1.506 3.026 1.326 1.8 2.699 3.565 4.028 5.362.583.786 1.079 1.638 1.661 2.425 1.066 1.44 1.19 2.797.047 4.324-1.547 2.06-3.096 4.085-5.302 5.506-.48.31-.88.381-1.397.158-1.004-.433-1.054-.322-1.736.48-.303.357-.945.468-1.456.598-1.382.353-2.804.567-4.152 1.01-1.425.468-2.755.23-4.047-.282-.802-.319-1.521-.87-2.25-1.356-.182-.124-.384-.425-.359-.617.124-.963-.093-1.914.378-2.899.951-1.991 1.689-4.085 2.473-6.154.747-1.973 1.394-3.986 2.178-5.944.428-1.068.61-2.103.353-3.24-.077.032-.145.047-.145.062-.08 2.221-1.441 3.996-2.129 6.003a84.416 84.416 0 0 1-2.832 7.148c-.483 1.072-1.31 1.992-2.033 2.943-.136.18-.49.204-.75.275-1.109.313-2.218.635-3.334.923-.38.1-.79.193-1.174.155-.7-.07-1.385-.254-2.082-.362-1.088-.167-2.19-.27-3.272-.477-.567-.108-1.106-.378-1.649-.592-.415-.16-.805-.433-1.233-.504-1.088-.18-2.008-.52-2.615-1.555-.208-.35-.744-.52-1.153-.734-.167-.087-.393-.065-.595-.087-2.221-.26-2.606-1.44-2.252-3.642.35-2.184 1.946-3.423 3.504-4.73 1.525-1.276 3.21-2.171 5.042-2.942 1.456-.614 2.717-1.704 4.04-2.62.868-.601 1.686-1.267 2.529-1.9.926-.693 1.865-1.368 2.779-2.08.288-.227.508-.54.679-.93-.115.044-.242.068-.341.133-1.044.697-2.082 1.407-3.127 2.103-1.989 1.323-3.957 2.68-5.986 3.94-.731.456-1.605.697-2.433.979a48.023 48.023 0 0 1-3.269 1.013c-3.408.907-6.06-.456-8.434-2.782-.883-.867-1.103-1.815-1.038-2.988.031-.58-.226-1.205-.465-1.766-.276-.644-.725-1.214-.988-1.861-.124-.3-.112-.787.059-1.05.557-.868.38-1.614-.165-2.376-.988-1.381-.845-1.93.62-2.806 1.838-1.1 3.84-1.642 5.946-1.781 3.393-.223 6.805-.703 10.176-.52 3.95.21 7.957.557 11.656 2.264.255.117.546.145.822.213.05-.086.099-.176.148-.263-.257-.189-.492-.43-.777-.564-2.79-1.297-5.745-1.938-8.775-2.415-2.814-.446-5.615-.515-8.435-.307-.82.059-1.524.006-2.209-.616-1.729-1.574-3.545-3.048-5.323-4.566-.558-.477-.837-1.112-.728-1.818.14-.904.282-1.84.632-2.676.647-1.555.66-3.144.465-4.745-.084-.697-.066-1.18.737-1.32.245-.043.474-.179.719-.22.88-.142 1.438-.634 1.772-1.455.505-1.242 1.416-1.778 2.724-1.71 1.066.056 2.135.121 2.913-.854.099-.124.378-.196.545-.158.995.226 1.986.483 2.971.743.193.05.36.23.549.245 1.648.133 2.448 1.381 3.374 2.496 1.413 1.703 2.94 3.32 4.289 5.073 2.348 3.051 4.589 6.182 6.894 9.264.23.307.598.515.917.747.254.186.52.372.809.496.198.083.443.061.666.09.01-.236.105-.512.012-.691-.241-.471-.564-.899-.719-1.444l1.441 1.933c.087-.025.17-.05.257-.074-.114-.53-.232-1.06-.343-1.58.09-.201.303-.455.303-.71 0-1.501-.025-3.004-.087-4.503-.05-1.254-.189-2.505-.229-3.76-.04-1.307-.108-2.617-.084-3.92a83.595 83.595 0 0 0-.192-.85c.05 2.076.069 4.154.062 6.23-.006 1.631-.117 3.267-.192 4.899a8.316 8.316 0 0 1-.26 1.809c-1.165-2.351-2.46-4.65-3.458-7.071-1.004-2.429-1.714-4.98-2.699-7.44.177.771.279 1.567.545 2.304.846 2.317 1.757 4.606 2.643 6.907.561 1.456 1.131 2.906 1.67 4.37.072.196-.002.446-.012.67-.108.018-.217.04-.325.058l-3.046-5.008c-.991-1.632-1.999-3.252-2.975-4.894-1.04-1.746-2.209-3.434-2.584-5.507-.09-.507-.365-.978-.644-1.427 1.403 5.367 4.44 9.963 6.975 14.832-.357-.424-.738-.83-1.073-1.273-1.899-2.508-3.78-5.03-5.68-7.538-.696-.917-1.446-1.797-2.14-2.717-.369-.489-.323-.99-.053-1.573.32-.69.406-1.487.682-2.2.644-1.665.58-3.707 2.395-4.769.536-.313 1.14-.508 1.8-.793l.964 4.073.204-.003c.025-.27.106-.548.062-.802a68.882 68.882 0 0 0-.657-3.259c-.12-.532.109-1.48.459-1.61.502-.189 1.335.248 1.55.895.458 1.378.87 2.769 1.297 4.157.078.247.15.498.323.721.068-1.967-.707-3.72-1.348-5.38l3.78-1.79c.078.27.183.542.236.824l.213 1.19c.1-.078.208-.137.326-.174a31.53 31.53 0 0 0-.112-.753c-.065-.412-.201-.811-.322-1.279 1.31-.737 2.578.62 3.836.26l.598 2.035c.1-.018.201-.04.3-.059-.12-.7-.272-1.397-.35-2.103-.024-.21.112-.607.245-.64 1.286-.326 2.507.253 3.325 1.371 1.354 1.852 2.169 3.903 2.432 6.167.034.297-.16.616-.21.929-.28 1.809-1.094 3.494-1.125 5.37-.013.667-.338 1.36-.648 1.98-.737 1.474-.985 3.05-1.174 4.655-.056.486-.282.948-.372 1.434-.186 1.044-.335 2.097-.499 3.144.105.025.21.046.316.071.186-.623.378-1.242.555-1.868.062-.216.021-.49.142-.656.936-1.304.781-2.887 1.162-4.33.21-.796.583-1.546.79-2.339.273-1.037.459-2.096.667-3.15.043-.22-.028-.47.046-.672.595-1.595 1.212-3.18 1.828-4.77a.932.932 0 0 1 .195-.319c1.19-1.18 2.368-2.375 3.585-3.527.794-.75 1.633-1.286 2.845-.747.536.239 1.252.037 1.86.164.411.087.833.332 1.149.617 1.044.941 1.98 2 3.47 2.301.675.136.722.836.694 1.363-.093 1.682-.254 3.36-.424 5.04-.038.365-.208.72-.35 1.068-.245.6-.611.963-1.358.941-.477-.012-1.02.164-1.431.422-1.64 1.022-3.347 1.97-4.242 3.843-.769 1.61-1.494 3.265-2.473 4.748-1.143 1.732-2.538 3.299-3.827 4.934-.068.084-.18.13-.396.282 1.859-2.908 3.628-5.68 5.404-8.455-.084-.053-.168-.109-.248-.161-.378.57-.735 1.155-1.137 1.706a748.4 748.4 0 0 1-4.202 5.702c-.36.483-.79.92-1.112 1.425-.146.23-.109.576-.069.883-.523.675-.523.675 1.47 1.19-.134.191-.298.35-.366.541-.084.242-.093.511-.134.771.254-.015.54.044.756-.052 1.392-.617 2.402-1.704 3.378-2.819a44.789 44.789 0 0 0 1.998-2.465c.285-.378.477-.83.63-1.298-1.86 1.471-3.084 3.584-5.28 4.894v-.737c-.24.05-.496.102-.757.151-.037-.07-.07-.142-.108-.213.53-.39 1.06-.78 1.59-1.168l-.252.79c.04.037.081.074.118.111.17-.142.428-.248.502-.427.936-2.305 2.6-4.17 3.777-6.328.698-1.28 1.18-2.704 2.02-3.878 1.34-1.864 3.016-3.394 5.528-3.453.9-.022 1.804.034 2.702.096.41.028.592.257.691.725.251 1.18.574 2.31 1.937 2.834 1.035.396 1.45 1.325 1.081 2.36-.588 1.654-.148 2.964 1.066 4.088 1.147 1.062.917 2.36.663 3.642-.334 1.682-1.577 2.75-2.723 3.894a9.93 9.93 0 0 1-5.333 2.797c-1.255.232-2.544.285-3.817.415-1.103.111-2.225.127-3.303.35-1.293.266-2.55.709-3.774 1.062-.127-.322-.295-.756-.527-1.354 2.624-1.04 5.323-2.109 8.022-3.18-.028-.069-.053-.14-.08-.208-3.152 1.121-6.492 1.7-9.637 3.292.381.453.694.824 1.038 1.23l-1.766 1.642c.378.068.626.123.88.158.362.05.728.083 1.09.123a.236.236 0 0 0 .106.05c3.136.387 6.271.774 9.41 1.155.037.003.087-.105.254-.325-2.807-.588-5.512-1.106-8.31-1.069l.033-.315c.177.027.357.046.533.08.23.043.456.1.756-.015-.17-.13-.337-.26-.656-.511 1.056-.227 1.973-.477 2.906-.608 1.147-.16 2.309-.185 3.458-.328 1.869-.238 3.582.44 5.342.84 3.836.87 6.405 3.45 8.63 6.454.811 1.128.746 2.301-.05 3.104z"/><path id="b" d="M46.9 39.9c.972.917 3.66 1.691 4.2 1.293-1.105-.396-2.2-.785-3.294-1.177a.273.273 0 0 1-.113-.053 30.69 30.69 0 0 1-.793-.063z"/><path id="c" d="M39.902 28.388c.036.342.183.674.282 1.012.202-.218.4-.44.608-.658.032-.034.09-.044.135-.066.281.177.646.285.81.155.368-.297.72-.673.928-1.09a528.9 528.9 0 0 0 3.803-7.768c.192-.399.291-.841.432-1.265l-.166-.07-3 5.1c.461-1.322 1.095-2.551 1.639-3.819.538-1.255.986-2.545 1.473-3.819a.764.764 0 0 0-.4.401c-1.438 2.906-2.866 5.817-4.316 8.72-.49.976-1.002 1.953-2.023 2.519-.077.215-.227.44-.205.648z"/><path id="d" d="M40.608 27.305c0-.002.003-.002.003-.005l-.011.01c.003 0 .005-.002.008-.005z"/><path id="e" d="M55.381 53.632c-3.171-2.817-6.42-5.554-9.143-8.832-.402-.483-.792-.974-1.21-1.441-.216-.242-.48-.44-.72-.659-.069.062-.137.127-.208.189.272.346.576.677.817 1.045 2.08 3.17 4.988 5.56 7.683 8.149.903.869 1.902 1.639 2.877 2.43.118.096.347.062.523.087-.037-.17-.034-.371-.127-.504-.127-.18-.325-.312-.492-.464z"/><path id="f" d="M45.92 34.616c.323.183.677.298 1.095.475-.243.33-.41.517-.531.735-.065.12-.116.363-.06.424.098.103.309.18.434.138.246-.083.48-.234.688-.401.365-.289.697-.623 1.059-.912.792-.636 1.596-1.256 2.394-1.882l-.17-.273c-.765.472-1.557.902-2.29 1.426-.513.366-.898.478-1.192-.138l4.453-4.6-.178-.208c-.985.838-1.934 1.731-2.96 2.502-.935.7-1.674 1.77-2.92 1.936-.095.013-.261.27-.24.306.113.176.246.372.418.472z"/><path id="g" d="M44.84 41.33c.052.373.141.736.207 1.105.05.288.091.578.139.866.252-.076.504-.149.826-.247 1.177 1.096 2.347 2.372 3.88 3.146a1.272 1.272 0 0 0-.41-.673c-1.001-.922-2.02-1.822-3.004-2.766-.228-.218-.341-.569-.507-.86l.196-.205c1.597.733 3.197 1.469 4.794 2.205l.139-.313c-.136-.117-.255-.272-.406-.347a346.97 346.97 0 0 0-5.26-2.606c-.153-.076-.456-.022-.574.098-.1.104-.05.398-.02.597z"/><path id="h" d="M31.146 37.703c.19.149.547.071.829.097.006-.226.056-.465.009-.679-.122-.53-.288-1.047-.4-1.438.278-.333.616-.547.616-.766.006-.618-.1-1.242-.225-1.85-.025-.122-.457-.29-.476-.261-.422.582-.738.21-1.138-.052-.707-.462-1.46-.84-2.198-1.254l-.163.187c.116.191.194.44.356.566a43.96 43.96 0 0 0 2.293 1.678c.51.342.64.866.262 1.383-.419.576-.325 1.956.235 2.389z"/><path id="i" d="M23.1 52.5c1.192-.276 6.123-5.81 6.3-7-.646.08-6.114 6.111-6.3 7z"/><path id="j" d="M43.569 29.353c-.311.306-.609.537-.813.824-.1.144-.033.39-.043.593.197.004.428.07.582-.006.745-.359 1.113-1.108 1.04-1.94-.017-.174.053-.414.18-.536 1.291-1.259 1.602-2.992 2.385-4.488a5757.607 5757.607 0 0 1-4.107 5.047c.321.212.525.343.776.506z"/><path id="k" d="M56 10.5c-1.088.887-3.842 6.857-3.465 7.7 1.484-2.543 2.676-5.036 3.465-7.7z"/><path id="l" d="M33.138 45.5c-.13.253-.284.497-.383.757-.598 1.525-1.182 3.055-1.77 4.58-.065.17-.178.332-.185.5a.606.606 0 0 0 .171.445c.058.053.315-.02.43-.097.151-.103.302-.25.366-.407.616-1.544 1.234-3.089 1.791-4.652.113-.316-.034-.71-.062-1.07l-.358-.056z"/><path id="m" d="M12.98 37.144c-1.972-.02-3.94-.044-5.912-.044-.23 0-.461.123-.768.213.647.457 8.472.416 9.1-.104-.434-.022-.69-.04-.945-.043-.492-.014-.984-.02-1.476-.022z"/><path id="n" d="M39.9 27.636c-.599-.824-1.165-.217-1.964.235l.896-6.149c-.044-.006-.085-.016-.13-.022L37.1 29.4c.355-.127.86-.143 1.048-.416.47-.674 1.039-1.097 1.752-1.348z"/><path id="o" d="M40.62 27.3a.134.134 0 0 0-.02.008c.003.003.003.006.005.006l.014-.014z"/><path id="p" d="M43.325 45.43c.737-.353 1.036-1.883.508-2.53-.132-.16-.45-.208-.678-.2-.073.004-.205.37-.186.552.13 1.136.116 1.167-.939 1.127-.083.49-.005.818.393 1.007.261.118.657.163.901.045z"/><path id="q" d="M15.778 22.646a606.547 606.547 0 0 0-4.823-3.65c-.114-.086-.3-.067-.455-.096.028.178.028.365.093.53.043.109.164.194.266.267 1.458 1.087 2.91 2.18 4.38 3.244.168.12.44.086.861.159-.207-.299-.25-.397-.322-.454z"/><path id="r" d="M26.6 58.1c1.493-.03 3.865-2.967 3.453-4.2L26.6 58.1z"/><path id="s" d="M53.201 32.836c.817-.518 1.608-1.08 2.4-1.631.374-.261.735-.541 1.099-.81-.05-.1-.1-.196-.151-.295-.23.085-.485.136-.69.263a95.968 95.968 0 0 0-3.04 1.957c-.165.114-.215.38-.319.578.24-.02.53.046.701-.062z"/><path id="t" d="M40.77 44.803c-.058-.029-.318.173-.31.25.071.739-.396.85-.904.98-.149.037-.364.255-.356.374.01.156.197.326.346.428.116.076.29.056.356.065 1.028-.014 1.628-.813 1.315-1.69-.064-.175-.271-.32-.447-.407z"/><path id="u" d="M58.1 33.362c.039.08.075.159.11.238.257-.076.546-.098.767-.241a88.804 88.804 0 0 0 3.013-2.01c.149-.105.209-.35.31-.53-.212.006-.465-.064-.623.034-1.107.69-2.199 1.407-3.285 2.13-.122.083-.194.252-.292.379z"/><path id="v" d="M51.799 18.2c-1.17 1.873-2.295 3.67-3.499 5.6 1.263-.567 3.558-4.264 3.499-5.6z"/><path id="w" d="M26.6 30.76c-1.466-1.287-3.152-1.854-4.9-2.76.696 1.13 4.183 3.104 4.9 2.76z"/><path id="x" d="M42.782 32.95c-.486.13-.852.384-.77.987 1.728.016 1.728.016 2.33 1.063.503-.463.57-.809.305-1.334-.272-.538-1.179-.903-1.865-.717z"/><path id="y" d="M31.5 28.7c-1.117-1.542-2.705-2.684-3.892-4.2-.102.093-.205.19-.308.283 1.12 1.545 2.625 2.742 4.2 3.917z"/><path id="z" d="M52.5 44.5c1.522.734 3.116 1.273 4.75 1.7l.15-.44-4.757-1.66c-.047.131-.093.27-.143.4z"/><path id="A" d="M32.445 40.518c.358-.146.67-.61.261-.665-.983-.135-1.024-.843-1.426-1.335l-.278-.018c-.073.375-.234.759-.196 1.125.068.708.966 1.171 1.64.893z"/><path id="B" d="M41.38 42.714c-.535.106-1.066.242-1.595.384-.201.055-.39.155-.585.233.145.19.261.426.447.562.15.113.384.11.79.207.37-.194.893-.43 1.362-.74.138-.09.138-.404.201-.614-.208-.016-.425-.071-.62-.032z"/><path id="C" d="M34.395 38.29c.196.356.354.213.504-.086.246-.493.508-.977.801-1.534-.333-.357-.623-.37-.99.019-.358.379-.531 1.21-.315 1.6z"/><path id="D" d="M37.8 34.342l2.722.658c.25-.59-.14-.909-.615-1.153-.868-.445-1.643-.293-2.107.495z"/><path id="E" d="M49.7 16.19l-.26-.09-1.14 4.11.258.09c.463-1.344 1.102-2.62 1.142-4.11z"/><path id="F" d="M35 42.691c-.119-.16-.21-.411-.368-.458-.406-.122-.847-.23-1.263-.198-.213.018-.4.347-.598.537l-.552-.082-.441-1.19c-.484.805-.303 1.945.287 2.015.806.1 1.091.744 1.645 1.088.267.167.579.269.869.397.027-.061.056-.12.083-.18-.587-.64-1.174-1.275-1.76-1.914.524.07 1.046.163 1.57.195.172.015.353-.134.528-.21z"/><path id="G" d="M24.5 41.3c-1.077.14-2.015.6-2.8 1.4 1.08-.124 1.992-.643 2.8-1.4z"/><path id="H" d="M42 40.157l-.142-.257c-.293.1-.593.19-.882.298-.442.166-.886.33-1.308.525-.182.086-.313.246-.468.374.209.071.431.22.63.201.95-.09 1.587-.594 2.17-1.141z"/><path id="I" d="M35.7 40.693c.367.485.652.889.97 1.254.072.086.257.038.387.052.012-.175.07-.37.029-.527a5.778 5.778 0 0 0-.364-.96c-.11-.226-.274-.41-.416-.612l-.606.793z"/><path id="J" d="M33.409 33.592c.095-.013.218-.35.186-.524-.075-.417-.218-.827-.369-1.23-.051-.134-.237-.35-.317-.337-.186.032-.404.15-.495.285-.119.177-.13.403-.214.698.135.282.242.65.48.947.11.138.49.19.729.161z"/><path id="K" d="M35.7 42c.21.654 1.091 1.368 1.66 1.4.137.008.343-.055.406-.142.06-.086.037-.31-.046-.371-.57-.403-1.102-.89-2.02-.887z"/><path id="L" d="M24.403 39.2c-1.37.382-2.736.764-4.103 1.148l.082.252 4.118-1.101c-.033-.1-.067-.2-.097-.299z"/><path id="M" d="M36.524 44.17c-.214.11-.416.274-.59.457-.113.122-.253.337-.232.475.025.138.235.228.43.398.335-.247.673-.43.933-.716.089-.1-.017-.45-.036-.684-.167.016-.354-.006-.505.07z"/><path id="N" d="M43.858 63c.24-.5.016-2.355-.34-2.8-.267.502-.051 2.284.34 2.8z"/><path id="O" d="M33.92 35c.394-.766.735-1.433 1.08-2.1-1.269.339-1.79 1.412-1.08 2.1z"/><path id="P" d="M45.5 37.8l-2.1 2.094c.977.096 2.013-.948 2.1-2.094z"/><path id="Q" d="M18.2 55.3c.624-.032 1.927-1.337 2.1-2.1-.594.01-1.888 1.302-2.1 2.1z"/><path id="R" d="M58.458 20.3l1.042-1.228c-.252-.087-.45-.204-.49-.164-.327.334-.626.695-.91 1.063-.008.01.233.215.358.329z"/><path id="S" d="M36.088 31.5c.577-.058 1.143-.168 1.712-.26-.096-.11-.155-.26-.303-.319-.215-.084-.5-.102-.6-.118-.191 0-.232-.007-.25.002-.318.135-.629.272-.947.407.13.1.285.297.388.288z"/><path id="T" d="M40.6 36.167c-.201-.15-.382-.393-.603-.434-.539-.099-1.048.005-1.497.585h1.983c.038-.052.08-.101.117-.15z"/><path id="U" d="M39.2 38.145c-.65-.134-1.19-.256-1.738-.343-.103-.018-.283.09-.35.177-.042.052.038.191.112.26.386.367 1.361.357 1.976-.094z"/><path id="V" d="M39.21 31.208c-.037.063.031.406.094.44.384.213.781.373 1.175.552l.121-.239c-.173-.645-.5-1.07-.985-1.16-.125-.022-.299.224-.404.407z"/><path id="W" d="M41.213 30.222c-.47-.158-1.005-.299-1.313.504l2.036.774c.233-.786-.206-1.105-.723-1.278z"/><path id="X" d="M58.1 45.8c.37.702 1.415 1.332 2.1 1.017-.773-.507-1.384-.914-2-1.317-.032.1-.066.2-.1.3z"/><path id="Y" d="M41.298 37.8c-.749.403-1.422.768-2.098 1.13l.137.247c.959.156 2.019-.49 1.96-1.377z"/><path id="Z" d="M19.6 21.396c-.63-.597-1.256-1.198-1.885-1.796l-.215.291 1.865 1.809.235-.304z"/><path id="aa" d="M40.023 9.8l-.123.003V13.3h.123V9.8z"/><path id="ab" d="M33.257 31.447c.067.067.22.036.336.053-.005-.118.032-.292-.027-.349-.387-.365-.793-.702-1.194-1.051-.056.067-.113.135-.172.202.347.383.691.776 1.057 1.145z"/><path id="ac" d="M54.6 49.373c.402.344.802.686 1.204 1.027l.196-.326c-.394-.357-.789-.714-1.183-1.074-.073.126-.144.25-.217.373z"/><path id="ad" d="M11.2 44.324l.052.334 2.048-.18-.066-.378c-.68.074-1.358.148-2.034.224z"/><path id="ae" d="M51.1 12.027l-.31-.127c-.132.662-.261 1.321-.39 1.984l.272.116c.141-.655.285-1.314.428-1.973z"/><path id="af" d="M36.28 33.622c-.254.093-.392.346-.58.53.082.048.165.097.247.148.227-.079.471-.142.675-.242.182-.09.32-.225.478-.34-.28-.043-.623-.168-.82-.096z"/><path id="ag" d="M18.2 25.364c.627.41 1.254.822 1.881 1.236l.219-.256c-.656-.382-1.311-.762-1.964-1.144-.044.055-.092.11-.136.164z"/><path id="ah" d="M43.4 36.992c-.18-.177-.306-.396-.554-.514-.19-.09-.54-.057-.815-.078l-.031.188 1.186.512.214-.108z"/><path id="ai" d="M25.2 22.09c-.421-.364-.845-.727-1.266-1.09-.044.056-.09.109-.134.165l1.125 1.235.275-.31z"/><path id="aj" d="M33.6 16.1c.637 1.86 1.264 3.686 1.923 5.6.655-1.099-.62-4.677-1.923-5.6z"/><path id="ak" d="M38.565 53.476c0 2.832 0 5.7-.754 8.469-.099.358.516.507.614.152.768-2.817.775-5.738.775-8.621.003-.368-.635-.368-.635 0z"/><path id="al" d="M42.712 50.074c.395 1.47 1.086 2.843 1.481 4.313.099.374.695.214.596-.16-.395-1.47-1.086-2.843-1.481-4.313-.102-.374-.698-.217-.596.16z"/><path id="am" d="M46.963 59.945c.014.34.65.34.637 0-.024-.656-.456-1.145-.81-1.711-.188-.304-.739-.037-.552.266.296.472.705.898.725 1.445z"/></defs><g fill="none" fill-rule="evenodd"><use fill="#FFA28A" xlink:href="#a"/><use fill="#FFCEC5" xlink:href="#a"/><use fill="#BB946A" xlink:href="#a"/><use fill="#FFA28A" xlink:href="#b"/><use fill="#FFCEC5" xlink:href="#b"/><use fill="#BB946A" xlink:href="#b"/><use fill="#FFA28A" xlink:href="#c"/><use fill="#FFCEC5" xlink:href="#c"/><use fill="#BB946A" xlink:href="#c"/><use fill="#FFA28A" xlink:href="#d"/><use fill="#FFCEC5" xlink:href="#d"/><use fill="#BB946A" xlink:href="#d"/><use fill="#FFA28A" xlink:href="#e"/><use fill="#FFCEC5" xlink:href="#e"/><use fill="#BB946A" xlink:href="#e"/><use fill="#FFA28A" xlink:href="#f"/><use fill="#FFCEC5" xlink:href="#f"/><use fill="#BB946A" xlink:href="#f"/><use fill="#FFA28A" xlink:href="#g"/><use fill="#FFCEC5" xlink:href="#g"/><use fill="#BB946A" xlink:href="#g"/><use fill="#FFA28A" xlink:href="#h"/><use fill="#FFCEC5" xlink:href="#h"/><use fill="#BB946A" xlink:href="#h"/><use fill="#FFA28A" xlink:href="#i"/><use fill="#FFCEC5" xlink:href="#i"/><use fill="#BB946A" xlink:href="#i"/><use fill="#FFA28A" xlink:href="#j"/><use fill="#FFCEC5" xlink:href="#j"/><use fill="#BB946A" xlink:href="#j"/><use fill="#FFA28A" xlink:href="#k"/><use fill="#FFCEC5" xlink:href="#k"/><use fill="#BB946A" xlink:href="#k"/><use fill="#FFA28A" xlink:href="#l"/><use fill="#FFCEC5" xlink:href="#l"/><use fill="#BB946A" xlink:href="#l"/><use fill="#FFA28A" xlink:href="#m"/><use fill="#FFCEC5" xlink:href="#m"/><use fill="#BB946A" xlink:href="#m"/><use fill="#FFA28A" xlink:href="#n"/><use fill="#FFCEC5" xlink:href="#n"/><use fill="#BB946A" xlink:href="#n"/><use fill="#FFA28A" xlink:href="#o"/><use fill="#FFCEC5" xlink:href="#o"/><use fill="#BB946A" xlink:href="#o"/><use fill="#FFA28A" xlink:href="#p"/><use fill="#FFCEC5" xlink:href="#p"/><use fill="#BB946A" xlink:href="#p"/><use fill="#FFA28A" xlink:href="#q"/><use fill="#FFCEC5" xlink:href="#q"/><use fill="#BB946A" xlink:href="#q"/><use fill="#FFA28A" xlink:href="#r"/><use fill="#FFCEC5" xlink:href="#r"/><use fill="#BB946A" xlink:href="#r"/><use fill="#FFA28A" xlink:href="#s"/><use fill="#FFCEC5" xlink:href="#s"/><use fill="#BB946A" xlink:href="#s"/><use fill="#FFA28A" xlink:href="#t"/><use fill="#FFCEC5" xlink:href="#t"/><use fill="#BB946A" xlink:href="#t"/><use fill="#FFA28A" xlink:href="#u"/><use fill="#FFCEC5" xlink:href="#u"/><use fill="#BB946A" xlink:href="#u"/><use fill="#FFA28A" xlink:href="#v"/><use fill="#FFCEC5" xlink:href="#v"/><use fill="#BB946A" xlink:href="#v"/><g><use fill="#FFA28A" xlink:href="#w"/><use fill="#FFCEC5" xlink:href="#w"/><use fill="#BB946A" xlink:href="#w"/></g><g><use fill="#FFA28A" xlink:href="#x"/><use fill="#FFCEC5" xlink:href="#x"/><use fill="#BB946A" xlink:href="#x"/></g><g><use fill="#FFA28A" xlink:href="#y"/><use fill="#FFCEC5" xlink:href="#y"/><use fill="#BB946A" xlink:href="#y"/></g><g><use fill="#FFA28A" xlink:href="#z"/><use fill="#FFCEC5" xlink:href="#z"/><use fill="#BB946A" xlink:href="#z"/></g><g><use fill="#FFA28A" xlink:href="#A"/><use fill="#FFCEC5" xlink:href="#A"/><use fill="#BB946A" xlink:href="#A"/></g><g><use fill="#FFA28A" xlink:href="#B"/><use fill="#FFCEC5" xlink:href="#B"/><use fill="#BB946A" xlink:href="#B"/></g><g><use fill="#FFA28A" xlink:href="#C"/><use fill="#FFCEC5" xlink:href="#C"/><use fill="#BB946A" xlink:href="#C"/></g><g><use fill="#FFA28A" xlink:href="#D"/><use fill="#FFCEC5" xlink:href="#D"/><use fill="#BB946A" xlink:href="#D"/></g><g><use fill="#FFA28A" xlink:href="#E"/><use fill="#FFCEC5" xlink:href="#E"/><use fill="#BB946A" xlink:href="#E"/></g><g><use fill="#FFA28A" xlink:href="#F"/><use fill="#FFCEC5" xlink:href="#F"/><use fill="#BB946A" xlink:href="#F"/></g><g><use fill="#FFA28A" xlink:href="#G"/><use fill="#FFCEC5" xlink:href="#G"/><use fill="#BB946A" xlink:href="#G"/></g><g><use fill="#FFA28A" xlink:href="#H"/><use fill="#FFCEC5" xlink:href="#H"/><use fill="#BB946A" xlink:href="#H"/></g><g><use fill="#FFA28A" xlink:href="#I"/><use fill="#FFCEC5" xlink:href="#I"/><use fill="#BB946A" xlink:href="#I"/></g><g><use fill="#FFA28A" xlink:href="#J"/><use fill="#FFCEC5" xlink:href="#J"/><use fill="#BB946A" xlink:href="#J"/></g><g><use fill="#FFA28A" xlink:href="#K"/><use fill="#FFCEC5" xlink:href="#K"/><use fill="#BB946A" xlink:href="#K"/></g><g><use fill="#FFA28A" xlink:href="#L"/><use fill="#FFCEC5" xlink:href="#L"/><use fill="#BB946A" xlink:href="#L"/></g><g><use fill="#FFA28A" xlink:href="#M"/><use fill="#FFCEC5" xlink:href="#M"/><use fill="#BB946A" xlink:href="#M"/></g><g><use fill="#FFA28A" xlink:href="#N"/><use fill="#FFCEC5" xlink:href="#N"/><use fill="#BB946A" xlink:href="#N"/></g><g><use fill="#FFA28A" xlink:href="#O"/><use fill="#FFCEC5" xlink:href="#O"/><use fill="#BB946A" xlink:href="#O"/></g><g><use fill="#FFA28A" xlink:href="#P"/><use fill="#FFCEC5" xlink:href="#P"/><use fill="#BB946A" xlink:href="#P"/></g><g><use fill="#FFA28A" xlink:href="#Q"/><use fill="#FFCEC5" xlink:href="#Q"/><use fill="#BB946A" xlink:href="#Q"/></g><g><use fill="#FFA28A" xlink:href="#R"/><use fill="#FFCEC5" xlink:href="#R"/><use fill="#BB946A" xlink:href="#R"/></g><g><use fill="#FFA28A" xlink:href="#S"/><use fill="#FFCEC5" xlink:href="#S"/><use fill="#BB946A" xlink:href="#S"/></g><g><use fill="#FFA28A" xlink:href="#T"/><use fill="#FFCEC5" xlink:href="#T"/><use fill="#BB946A" xlink:href="#T"/></g><g><use fill="#FFA28A" xlink:href="#U"/><use fill="#FFCEC5" xlink:href="#U"/><use fill="#BB946A" xlink:href="#U"/></g><g><use fill="#FFA28A" xlink:href="#V"/><use fill="#FFCEC5" xlink:href="#V"/><use fill="#BB946A" xlink:href="#V"/></g><g><use fill="#FFA28A" xlink:href="#W"/><use fill="#FFCEC5" xlink:href="#W"/><use fill="#BB946A" xlink:href="#W"/></g><g><use fill="#FFA28A" xlink:href="#X"/><use fill="#FFCEC5" xlink:href="#X"/><use fill="#BB946A" xlink:href="#X"/></g><g><use fill="#FFA28A" xlink:href="#Y"/><use fill="#FFCEC5" xlink:href="#Y"/><use fill="#BB946A" xlink:href="#Y"/></g><g><use fill="#FFA28A" xlink:href="#Z"/><use fill="#FFCEC5" xlink:href="#Z"/><use fill="#BB946A" xlink:href="#Z"/></g><g><use fill="#FFA28A" xlink:href="#aa"/><use fill="#FFCEC5" xlink:href="#aa"/><use fill="#BB946A" xlink:href="#aa"/></g><g><use fill="#FFA28A" xlink:href="#ab"/><use fill="#FFCEC5" xlink:href="#ab"/><use fill="#BB946A" xlink:href="#ab"/></g><g><use fill="#FFA28A" xlink:href="#ac"/><use fill="#FFCEC5" xlink:href="#ac"/><use fill="#BB946A" xlink:href="#ac"/></g><g><use fill="#FFA28A" xlink:href="#ad"/><use fill="#FFCEC5" xlink:href="#ad"/><use fill="#BB946A" xlink:href="#ad"/></g><g><use fill="#FFA28A" xlink:href="#ae"/><use fill="#FFCEC5" xlink:href="#ae"/><use fill="#BB946A" xlink:href="#ae"/></g><g><use fill="#FFA28A" xlink:href="#af"/><use fill="#FFCEC5" xlink:href="#af"/><use fill="#BB946A" xlink:href="#af"/></g><g><use fill="#FFA28A" xlink:href="#ag"/><use fill="#FFCEC5" xlink:href="#ag"/><use fill="#BB946A" xlink:href="#ag"/></g><g><use fill="#FFA28A" xlink:href="#ah"/><use fill="#FFCEC5" xlink:href="#ah"/><use fill="#BB946A" xlink:href="#ah"/></g><g><use fill="#FFA28A" xlink:href="#ai"/><use fill="#FFCEC5" xlink:href="#ai"/><use fill="#BB946A" xlink:href="#ai"/></g><g><use fill="#FFA28A" xlink:href="#aj"/><use fill="#FFCEC5" xlink:href="#aj"/><use fill="#BB946A" xlink:href="#aj"/></g><g><use fill="#FFA28A" xlink:href="#ak"/><use fill="#FFCEC5" xlink:href="#ak"/><use fill="#BB946A" xlink:href="#ak"/></g><g><use fill="#FFA28A" xlink:href="#al"/><use fill="#FFCEC5" xlink:href="#al"/><use fill="#BB946A" xlink:href="#al"/></g><g><use fill="#FFA28A" xlink:href="#am"/><use fill="#FFCEC5" xlink:href="#am"/><use fill="#BB946A" xlink:href="#am"/></g></g></svg>