<svg xmlns="http://www.w3.org/2000/svg" xmlns:xlink="http://www.w3.org/1999/xlink" width="59" height="71"><script xmlns=""/><defs><path id="a" d="M53.922 5l-.79-.66v1c0 1.59-2 9.262-2.878 12.422-.3-1-.59-2.078-.82-3.16-.82-3.88-2.809-6.801-4.328-7.871h-.004a24.371 24.371 0 0 1-4.453-4.582c-.68-.899-1.309-1.31-1.942-1.25h.004a1.229 1.229 0 0 0-.781.41 15.955 15.955 0 0 0-4.692-1c-4-.39-6.25 4.07-6.53 5h.003a3.863 3.863 0 0 1-1.09 1.902 53.605 53.605 0 0 0-7.07-4.563C13.001-.46 8.29 4.57 4.88 9.45c-.5-.218-.73-1.172-.7-2.101v-.922l-.788.469c-2.14 1.28-3.719 5.27-2.43 10.14l.078.122c-1.11 7.128 2.671 17.698 6.78 27.487 5 11.82 11.531 18 21.32 19.879v.007c.067.407.254.79.54 1.09.328.328.28 2.192.23 3.828v.172a.483.483 0 0 0 .14.356c.09.093.215.152.348.152a.496.496 0 0 0 .5-.488v-.172c.07-2.371.11-3.93-.531-4.57h.004a.986.986 0 0 1-.27-.86c.07-.289.328-.531.77-.691 2-.738 4.101-.88 4.379-.309.199.52.176 1.102-.07 1.602-.133.36-.211.734-.231 1.12 0 .872-.059 3.93-.059 3.93h1s.059-3.07.059-3.949v-.003c.023-.278.09-.547.191-.81.125-.35.207-.718.25-1.089h.2c1.949 0 4.87-1.601 9.07-4.27 5.68-3.609 7.879-11.351 9.2-16 .26-.921.487-1.718.69-2.28 1.079-3 1.2-7.891 1.262-10.22v-.738l-.004-.004c.07-.781.188-1.558.352-2.328a57.52 57.52 0 0 0 1-9.398C58.36 12.32 56.85 7.489 53.922 5zm-3.129 14.301c.149-.5 1.14-4.11 2-7.578l-.004-.004a48.574 48.574 0 0 1-1.328 9.61 30.11 30.11 0 0 1-.738-1.95c.015.031.058 0 .066-.05l.004-.028zM44.461 7.602c1.398 1 3.2 3.8 3.922 7.262.61 2.922 2 7 2.719 8-.48 2.351-1 6-1.422 9-.281 2-.52 3.699-.672 4.46-.18.91-.719 3.09-1.45 5.54v-.004a52.09 52.09 0 0 0-1.577-13c-.809-3.399-1.621-8.54-2.399-13.512a424.427 424.427 0 0 0-1.218-7.461l-.004.004a11.533 11.533 0 0 0-1-3.25 20.987 20.987 0 0 0 3.1 2.959v.001zM27.602 5.649c.23-.73 2.211-4.61 5.54-4.27 3.53.371 7.19.739 8.237 6.711.391 2.22.79 4.762 1.211 7.45.79 5 1.602 10.14 2.422 13.578 1 4 2.34 11.55 1 17.328v.003a20.156 20.156 0 0 1-1.922 4c-.441.641-1 1.47-1.609 2.391-2.129 3.21-5.3 8-7 9.18a2.015 2.015 0 0 0-.441-.168c1.28-1.899 2.52-5.531 2.18-12.391-.06-1.13-.11-2.93-.15-5.07a.492.492 0 0 0 .13-.18c1.52-5.219 2.61-15.781 2.52-24.56v-.003a.493.493 0 0 0-.145-.352.506.506 0 0 0-.356-.148c-.273 0-.5.226-.5.5.063 6.973-.5 13.938-1.68 20.812 0-1.301 0-2.64.051-4 .141-5.781-1.191-14.73-4.441-20.75A26.17 26.17 0 0 0 26.3 7.827a5.184 5.184 0 0 0 1.301-2.18v.002zM3.18 8.379a2.566 2.566 0 0 0 1.082 1.942c-.66 1-1.262 1.922-1.8 2.781A9.426 9.426 0 0 0 1.577 15C1.238 12.11 2 9.65 3.18 8.38zm27.34 54.09c-.574.168-1.05.57-1.308 1.11-9.372-1.88-15.7-7.828-20.5-19.27-4.891-11.672-9.36-24.43-5.41-30.66 4.14-6.54 9-13.262 14.71-10.078 6.47 3.62 10.59 6.719 13.801 12.68 3.211 5.961 4.45 14.602 4.309 20.25-.129 5.191 0 10.64.129 13 .36 7.23-1.051 10.64-2.328 12.23a12.526 12.526 0 0 0-3.403.738zM56.18 27.86c-.176.844-.297 1.7-.36 2.563v.75c-.058 2.281-.171 7-1.198 9.91-.211.59-.442 1.41-.711 2.352-1.282 4.488-3.41 12-8.77 15.398-4.16 2.648-7.27 4.34-8.871 4.07v-.121c1.7-1.29 4.238-5 7.129-9.371.61-.922 1.148-1.738 1.601-2.38 2.329-3.37 4.63-12.28 5.079-14.5.16-.78.398-2.51.68-4.51.5-3.571 1.19-8.462 1.738-10.38.878-3.07 1.41-8 1.609-15.109 2.16 2.43 3.309 6.75 3.16 12.09h.004a56.479 56.479 0 0 1-1.09 9.239z"/><path id="b" d="M13.828 23.699a.508.508 0 0 0-.547-.45.497.497 0 0 0-.34.18.514.514 0 0 0-.113.372c.64 6.27 3.578 27.488 14.422 37a.5.5 0 0 0 .66-.75c-2.672-2.352-11.57-11.891-14.082-36.352z"/><path id="c" d="M21.398 34.23a.508.508 0 0 0-.61-.39.518.518 0 0 0-.39.609c1.34 6.07 5.828 21 10.461 25.898v.004a.501.501 0 1 0 .73-.691c-4.21-4.481-8.71-18.77-10.19-25.43h-.001z"/><path id="d" d="M22.93 27.078a.511.511 0 0 0-.305-.234.485.485 0 0 0-.383.054.485.485 0 0 0-.23.309.486.486 0 0 0 .059.383c3.609 6.07 10.27 25.309 10.68 32.109a.501.501 0 0 0 .5.472.5.5 0 0 0 .468-.53c-.398-7.063-7.039-26.263-10.789-32.563z"/><path id="e" d="M50.66 47.672a.482.482 0 0 0-.371.09.487.487 0 0 0-.2.328c-.738 5-8 10.469-11.761 12.641a.503.503 0 0 0 .5.871c3.89-2.25 11.44-7.95 12.238-13.359l.004-.004a.495.495 0 0 0-.41-.566v-.001z"/></defs><g fill="none" fill-rule="evenodd"><use fill="#FFA28A" xlink:href="#a"/><use fill="#FFCEC5" xlink:href="#a"/><use fill="#BB946A" xlink:href="#a"/><use fill="#FFA28A" xlink:href="#b"/><use fill="#FFCEC5" xlink:href="#b"/><use fill="#BB946A" xlink:href="#b"/><g><use fill="#FFA28A" xlink:href="#c"/><use fill="#FFCEC5" xlink:href="#c"/><use fill="#BB946A" xlink:href="#c"/></g><g><use fill="#FFA28A" xlink:href="#d"/><use fill="#FFCEC5" xlink:href="#d"/><use fill="#BB946A" xlink:href="#d"/></g><g><use fill="#FFA28A" xlink:href="#e"/><use fill="#FFCEC5" xlink:href="#e"/><use fill="#BB946A" xlink:href="#e"/></g></g></svg>