<svg xmlns="http://www.w3.org/2000/svg" xmlns:xlink="http://www.w3.org/1999/xlink" width="74" height="80"><defs><path id="a" d="M48.503 35.721c.02.035.069.017.072-.02.069-.68-.367-1.419-1.006-1.673-.196-.079-.33.203-.196.337.196.196.409.37.598.57.213.23.374.518.532.786z"/><path id="b" d="M29.035 45.113c.978-.615 1.792-1.504 2.764-2.15.993-.66 2.064-1.116 3.146-1.6.106-.048.024-.189-.072-.175-1.271.178-2.476.745-3.537 1.446-.897.59-1.924 1.428-2.346 2.441-.014.028.02.052.045.038z"/><path id="c" d="M18.447 41.03c-.061.01-.054.09-.017.12.265.203.58.347.859.543.271.192.532.398.803.587.062.042.145-.027.124-.092-.21-.69-1.034-1.292-1.769-1.158z"/><path id="d" d="M11.769 28.636c-.004 0-.004.007 0 .007 3.75.67 5.536 3.932 6.933 7.133.017.038.08.01.065-.028-.614-1.875-1.215-3.777-2.537-5.285-1.106-1.256-2.761-2.18-4.461-1.826z"/><path id="e" d="M19.894 34.736c.01.065.12.065.13 0 .271-1.545-.178-3.561-1.452-4.57-.024-.018-.066-.004-.055.03.243.71.604 1.37.848 2.081.278.804.408 1.621.529 2.459z"/><path id="f" d="M10.989 30.958c-.03.004-.041.048-.007.059 1.944.508 3.503 1.298 4.75 2.922a.044.044 0 0 0 .075-.045c-.81-1.765-2.83-3.162-4.818-2.936z"/><path id="g" d="M73.691 29.908c-.508-1.171-1.016-2.339-1.517-3.513-.406-.952-.756-2.04-1.426-2.847-.525-.632-1.164-1.054-1.991-1.123a1.652 1.652 0 0 0-1.264.488 53.423 53.423 0 0 0-7.201 4.447c.79-1.336 1.294-2.871 1.521-4.317.03-.189-.076-.333-.268-.35-1.191-.117-1.926-1.096-2.218-2.167.275-.91.484-1.84.621-2.778.196-1.33.155-2.638.179-3.974.003-.24.038-.477.093-.707.017 0 .03.003.048.003.003 0 0-.003.003-.003l.034.003c.021 0 .021-.03 0-.03l-.034.003c-.003 0 0-.003-.003-.003l-.042.003a.064.064 0 0 0 .007-.024c.179-.055.53-.113.574-.113.378-.004.731.21 1.01.44.374.312.36.827.697 1.122.058.052.147.09.226.058.285-.11.412-.374.481-.666.814-1.624 1.037-3.523.47-5.274-.26-.807-.813-1.364-1.648-1.529-.467-.092-.965-.024-1.435-.003-.687.027-1.364-.107-2.02-.292-2.424-.676-4.436-2.318-6.947-2.778-1.466-.268-3.231.03-4.258 1.164-.398-1.332-.951-2.64-1.11-4.014-.023-.224-.267-.35-.446-.186-2.06 1.906-5.048-.374-7.427.605-1.652.68-2.428 2.548-3.922 3.437-.519.034-1.034.179-1.504.364-.656.261-1.528.677-1.93 1.288a7.836 7.836 0 0 0-.735-.35c-1.552-.667-3.183-1.182-4.811-1.635a.243.243 0 0 0-.285.144c-1.11-.9-2.981-.958-4.269-.903-1.342.058-2.647.189-3.987-.034-1.305-.22-2.541-.746-3.65-1.456-.168-.107-.374.003-.433.175-.512 1.476-1.964 2.386-3.51 2.263-.202-.017-.322.199-.285.374.553 2.58-1.48 4.633-2.963 6.463-1.288 1.587-2.37 3.51-1.885 5.615.037.165.213.237.364.206 1.226-.244 1.923 1.068 2.496 1.92.484.717.969 1.414 1.515 2.08-.028.042-.059.083-.083.128-.003.003 0 .006-.003.013-.179.285-.33.601-.454.945-.13.36-.26.714-.463 1.04-.326.529-.914.467-1.453.43-.759-.055-1.308.336-1.703.95-.46.725-.584 1.683-.78 2.5l-.649 2.69c-.161.353-.333.707-.515 1.05-.432.825-1.075 1.49-1.624 2.236a3.547 3.547 0 0 0-.505.972c0 .003-.003.003-.003.007a.257.257 0 0 0-.017.055c-.495 1.308-.158 2.919.83 3.99.124.134.34.058.389-.103.467-1.49.83-3.018 1.184-4.547.701-.862 1.673-1.298 2.755-1.476.133.274.436.47.68.676.508.43 1.081.776 1.672 1.079 1.28.649 2.685.813 4.09.971.24.028.477.062.71.103.509.55.413 1.683.375 2.397-.055.972.21 1.917.58 2.806.687 1.648 1.707 3.331 2.803 4.742 1.476 1.9 3.701 3.146 6.074 3.716-2.6 1.8-3.362 5.608-4.409 8.352-1.325 3.472-5.024 6.655-4 10.693.078.316.518.176.473-.13-.608-4.306 4.938-6.017 7.583-8.156 2.733-2.211 3.355-6.466 6.861-7.6.165-.006.326-.02.491-.044.052-.007.103-.02.155-.031-.68.673-.938 1.724-.904 2.744.062 1.93 1.068 3.801 2.044 5.412 1.023 1.69 2.218 3.27 3.077 5.058.923 1.916 1.404 4.461.429 6.456-.103.217.216.406.323.19a31.284 31.284 0 0 0 1.71-4.335l.007.007c.563 4.131 1.566 8.232 2.42 12.308.06.275.478.264.543 0 .447-1.782 1.995-3.019 2.442-4.811.23-.927.007-1.906-.23-2.806-.31-1.174-.625-2.345-.876-3.534a49.184 49.184 0 0 1-.961-7.153c-.148-2.331.072-4.646.006-6.97 1.357.28 2.8.205 4.19.185 2.685.666 5.446 2.19 6.552 4.807.096.23.45.1.447-.12-.018-1.713-.615-3.911-2.04-5.01a5.283 5.283 0 0 0 1.476-.67c.68-.45 1.288-1.106 1.635-1.844.113-.24.21-.477.306-.71a6.113 6.113 0 0 1 1.13-1.313c.858-.748 2.008-.992 3.104-1.14 1.82-.244 3.448-.422 4.938-1.593 2.833-2.225 3.963-7.194 8.032-7.64.268-.032.43-.396.148-.55-1.473-.8-1.054-2.724-.869-4.066a6.556 6.556 0 0 0 .028-1.532c.673-1.947 2.568-3.248 4.684-2.998.243.024.322-.254.25-.422zm-72.49 7.97c-.432-.498-.655-1.12-.703-1.762a4.183 4.183 0 0 1 .147-1.143c.255-.938.959-1.624 1.546-2.363a7.17 7.17 0 0 0 .37-.515c-.48 1.916-.999 3.84-1.36 5.783zM61.213 23.17c-.274 1.178-.642 2.305-1.191 3.393-.313.625-.68 1.216-1.058 1.8a54.176 54.176 0 0 0-3.915 3.351 52.329 52.329 0 0 0-2.792 2.864c.045-.16.069-.319.096-.473a6.421 6.421 0 0 1 2.332-3.136c.024-.017.01-.058-.02-.048a3.715 3.715 0 0 0-2.233 2.201c-.003-.473-.034-.968-.027-1.449.477-.79.979-1.473 1.779-2.002.978-.649 2.136-.9 3.217-1.318.028-.01.028-.059-.006-.059-1.484.124-3.97.763-4.85 2.263a2.56 2.56 0 0 1 .186-.474 21.95 21.95 0 0 0 1.868-1.696 117.973 117.973 0 0 0 4.231-2.964c.024-.017.01-.058-.02-.048-.986.347-1.955.862-2.844 1.484a18.505 18.505 0 0 0 1.39-1.94c.09-.08.18-.162.272-.237.385-.323.804-.57 1.223-.845.04-.028.013-.083-.031-.076a3.04 3.04 0 0 0-1 .35c.53-.971.972-1.995 1.326-3.045.196.999 1.078 1.802 2.067 2.105zm1.38-9.615c-.178-.333-.473-.598-.792-.797a1.85 1.85 0 0 0-.91-.254c.01-.004.017-.01.023-.014.327-.12.804-.038 1.106.12.024.014.052-.013.038-.037-.264-.447-.649-.615-1.157-.543-.035.007-.069.027-.103.034.147-.127.32-.233.529-.305.59-.203 1.033.326 1.212.813.11.31.103.65.055.983zm-4.92-6.487a8.187 8.187 0 0 0 2.668.566c1.037.045 2.07-.32 2.689.78.422.748.54 1.658.46 2.575a2.57 2.57 0 0 0-.797-1.308c-1.112-.989-2.42-.048-3.073.951-.017.024.017.048.038.031.9-.841 2.204-1.432 3.08-.213.464.65.426 1.484.385 2.27-.021.062-.042.127-.066.189-.055-.749-.333-1.422-1.177-1.69-1.086-.343-1.954.828-2.195 1.71-.189.68-.106 1.436-.106 2.133a17.32 17.32 0 0 1-.193 2.531c-.213 1.49-.631 2.95-1.184 4.348-1.161 2.922-3.112 5.473-5.536 7.458-2.263 1.855-4.852 3.252-6.8 5.447-.278.254-.556.508-.827.766-.934.875-1.817 1.799-2.7 2.723a37.75 37.75 0 0 0 1.879-2.85c.282-.31.529-.65.831-.941.392-.378.835-.673 1.302-.945.027-.017.01-.055-.021-.051a3.489 3.489 0 0 0-1.315.563c.278-.495.556-.99.827-1.487.035-.03.07-.065.107-.096.415-.313.879-.491 1.356-.68.02-.01.017-.038-.007-.041-.343-.035-.752.055-1.14.223.141-.261.282-.522.423-.787.216-.171.432-.34.666-.494.37-.247.824-.367 1.174-.639.014-.01.007-.034-.01-.038-.46-.079-.975.107-1.422.41l.423-.798c.202-.27.401-.539.649-.78.426-.415.958-.59 1.439-.906.017-.01.017-.044-.007-.048-.447-.065-.934.114-1.357.409.22-.402.44-.804.666-1.202.78-.683 1.851-.91 2.827-1.35.027-.013.013-.055-.014-.055-.797-.01-1.642.179-2.321.591.192-.316.38-.635.58-.948.271-.223.542-.453.858-.628.584-.323 1.223-.416 1.855-.601.017-.007.02-.034 0-.038-.608-.151-1.422.004-2.109.354.213-.32.43-.639.653-.955.275-.285.553-.563.896-.793.436-.292.944-.443 1.425-.646.035-.013.014-.065-.017-.065-.491-.03-1.023.134-1.497.416a40.117 40.117 0 0 1 2.328-2.83c.034-.038-.014-.11-.058-.076-2.8 2.109-4.729 5.052-6.429 8.142.237-1.452.46-2.88.969-4.285a14.447 14.447 0 0 1 2.791-4.653.024.024 0 0 0-.034-.035c-1.655 1.6-3.115 3.815-3.74 6.168-.144-3.706.99-7.528 3.256-10.447.014-.017-.01-.041-.024-.024-2.304 2.61-3.527 5.886-3.469 9.265-.072-.45-.147-.896-.226-1.339-.096-1.772.034-3.458.536-5.21.58-2.022 1.713-4.148 3.176-5.67.02-.02-.01-.054-.03-.03-1.65 1.535-2.803 3.214-3.5 5.367a11.82 11.82 0 0 0-.536 2.878c-.213-3.042.673-6.047 2.761-8.266.58-.36 1.099-.731 1.566-1.322.714-.903 1.507-2.218 2.867-1.92.268.059.47-.343.196-.466-1.374-.615-2.95-1.384-4.502-1.116a3.907 3.907 0 0 0-1.47.57c.213-.244.467-.426.708-.636.03-.027-.004-.065-.035-.062a1.466 1.466 0 0 0-.676.31c.168-.279.347-.577.412-.886.014-.055-.052-.09-.093-.055-.257.216-.436.542-.615.824-.089.137-.202.288-.285.446a9.087 9.087 0 0 0-.267-1.514c3.138-2.765 7.002.268 10.158 1.5zm-13.53 26.888c-.042-.106-.076-.212-.128-.315a.102.102 0 0 0-.003-.055 7.06 7.06 0 0 0-.563-1.312c.054-1.236-.756-2.51-1.405-3.49-.01-.016-.038-.003-.028.018.358.666.601 1.37.797 2.098.052.192.093.381.138.574-1.556-2.209-4.187-3.754-6.59-4.698-1.432-.56-2.913-.941-4.413-1.23a29.3 29.3 0 0 0 1.456-1.02c.041.169.103.337.154.488.08.244.172.488.337.687.003.003.01.003.01-.004.048-.257.007-.515-.034-.772a3.125 3.125 0 0 0-.158-.636c.412-.309.82-.625 1.226-.944 0 .12.01.24.034.35.083.416.216.711.532.996.038.035.093 0 .083-.048-.059-.333-.134-.673-.175-1.006-.024-.2-.007-.422-.083-.604.464-.375.93-.746 1.391-1.12-.154.464.007 1.147.364 1.415.01.007.024 0 .028-.01.04-.251-.014-.505-.025-.756-.013-.312.059-.6-.054-.896.24-.192.477-.388.717-.577l.612-.488c-.004.333.164.711.288.962.017.034.076.027.082-.01.083-.34.169-.883-.04-1.216.514-.409 1.03-.817 1.541-1.226-.024.082-.01.179-.003.271.013.186.072.358.127.533.013.044.089.051.1 0 .03-.179.05-.35.054-.533 0-.14-.003-.302-.127-.384h-.003c.759-.608 1.507-1.223 2.256-1.841-.072.378.017.786.299 1.065.01.01.027 0 .024-.014a2.519 2.519 0 0 1-.062-.848c.017-.151.041-.303.065-.45.004-.014.01-.02.014-.031.178-.148.36-.292.539-.44.326-.274.65-.563.968-.855-.199.526-.226 1.11-.017 1.645.01.028.052.024.052-.007.058-.858.25-1.6.676-2.294.323-.302.646-.604.972-.9-.36.76-.494 1.639-.316 2.422.004.02.031.013.035-.004.158-1.336.614-2.328 1.35-3.345a15.14 15.14 0 0 1 1.744-1.267c-1.68 1.779-2.607 4.094-2.63 6.655-.021 1.906.49 3.781.817 5.65-.375-.904-.928-1.69-1.632-2.432-.01-.014-.034.004-.024.017.756.993 1.274 2.24 1.59 3.438.302 1.147.234 2.287.175 3.444-.185.347-.36.69-.542 1.04a8.525 8.525 0 0 0-.014-1.572c-.103-1.15-.673-2.25-1.301-3.194-.007-.013-.028-.003-.021.01.563.996.776 2.054.862 3.184.038.488.027.968-.017 1.456-.045.484-.186.958-.2 1.439-.343.66-.69 1.301-1.037 1.944.08-.56.104-1.127.107-1.652.007-1.326-.419-2.638-.927-3.846-.007-.018-.038-.01-.031.01.412 1.243.525 2.534.508 3.84-.014 1.023-.247 1.998-.395 2.994-.017-.066-.051-.124-.075-.19v-.003a.22.22 0 0 0-.052-.11zm-7.71-5.305c-2.064-.292-4.162-.031-6.212-.478a6.437 6.437 0 0 1-2.628-1.26c-.662-.518-1.287-.985-2.139-1.126-.817-.134-1.68.123-2.462.323a9.645 9.645 0 0 1-2.641.302c-1.81-.048-3.568-.711-5.034-1.752-1.436-1.02-2.24-2.757-3.798-3.602a2.735 2.735 0 0 0-.598-.233c.979-.042 1.944.443 2.775.903 1.888 1.044 3.736 1.895 5.834 2.452 2.07.546 4.2.827 6.322 1.088 4.427.546 9.004.996 12.926 3.304 1.216.714 2.229 1.6 3.118 2.61-1.514-1.367-3.485-2.253-5.463-2.531zM18.945 18.54c-1.253-1.844-2.648-3.922-2.551-6.25.072-1.751 1.713-1.985 3.08-2.352l4.475-1.206c2.812-.759 6.188-1.686 8.736.285.158.12.343.11.46-.058.725-1.034 2.06-1.16 3.221-1.175 1.497-.013 3.012.124 4.502.265 1.353.13 3.314.062 4.351 1.078 1.072 1.051.148 2.607-.47 3.726-.083.065-.165.13-.244.2-.234.192-.46.39-.694.583.474-.69.79-1.466.797-2.356 0-.03-.052-.04-.055-.007-.185 1.357-1.26 2.246-1.933 3.37-.564.47-1.127.944-1.687 1.421a8.43 8.43 0 0 0 .426-.883c.457-1.105.577-2.184.622-3.368.003-.038-.059-.048-.065-.01-.303 1.898-1.292 3.584-2.17 5.26a102.38 102.38 0 0 0-2.034 1.82c.855-1.723 1.058-3.811.986-5.656-.004-.058-.09-.058-.09 0-.047 1.247-.374 2.525-.751 3.71-.35 1.091-.9 2.09-1.381 3.12-.357.34-.718.674-1.068 1.02-.275.272-.55.547-.828.825.557-2.229.766-4.53 1.137-6.796.007-.034-.044-.052-.055-.014-.539 2.432-1.284 4.822-1.555 7.301-.91.941-1.793 1.923-2.538 2.977.134-.425.134-.862.161-1.311.045-.77.08-1.539.107-2.308.055-1.539.037-3.08.086-4.619 0-.041-.059-.041-.062 0-.117 1.446-.289 2.885-.405 4.33-.055.674-.1 1.347-.138 2.02-.038.635-.158 1.325-.003 1.947-.488-.086-.979-.158-1.47-.23-.587-2.26-1.487-4.45-2.356-6.61-.014-.032-.062-.021-.055.013.57 2.187 1.14 4.416 1.975 6.528-.893-.124-1.79-.23-2.686-.333-.01-.79-.463-1.748-.72-2.397-.396-.993-.942-1.916-1.519-2.813-.024-.04-.086-.003-.065.038.501.92.883 1.885 1.223 2.875.171.497.312 1.006.45 1.514.065.244.102.494.168.731-.642-.075-1.281-.158-1.92-.243-.113-.65-.457-1.295-.755-1.845-.437-.803-.993-1.528-1.587-2.221-.014-.018-.045.007-.03.024.494.666.895 1.38 1.235 2.136.261.577.406 1.236.642 1.84-.274-.037-.552-.072-.827-.113-.196-.03-.388-.069-.584-.103-.151-.59-.494-1.188-.728-1.676-.014-.027-.062-.007-.051.02.147.396.24.798.34 1.206.03.127.051.254.075.385-.086-.017-.175-.031-.26-.045a2.436 2.436 0 0 0-.265-.443c-.278-1.902-1.546-3.578-2.6-5.127zm7.047-11.906c.223.316.487.6.793.828-.295.051-.59.106-.882.171.1-.298.123-.645.089-.999zm21.8 1.538c.573-.683 1.356-1.105 2.283-1.219 1.054-.13 2.091.24 3.053.694-1.405.412-2.18 2.36-3.355 3.142-.93.622-1.878 1.106-2.734 1.84-.954.818-1.833 1.721-2.774 2.556-1.985 1.755-4.063 3.4-6.13 5.055-2.109 1.69-4.334 3.31-6.284 5.185a.074.074 0 0 0-.007.1c-.062-.01-.12-.024-.182-.035 1.4-1.308 2.689-2.754 4.062-4.093a104.833 104.833 0 0 1 4.365-4.01 120.595 120.595 0 0 1 4.574-3.796 104.817 104.817 0 0 0 4.543-3.805c.093-.082-.03-.247-.134-.175a84.951 84.951 0 0 0-2.156 1.583c.556-.6 1.054-1.277 1.525-1.909.017-.02-.018-.045-.038-.027-.454.401-.941.82-1.398 1.267.412-.728.708-1.508.787-2.353zM36.283 4.015c.817-.807 1.545-1.72 2.678-2.081 2.191-.697 4.921 1.308 6.879-.275.35 1.848 1.16 3.575 1.38 5.446.151 1.278-.196 2.312-.724 3.287.642-1.885.364-4.11-.141-5.969-.007-.027-.048-.017-.041.01.24 1.25.226 2.39.061 3.648a17.825 17.825 0 0 1-.285 1.548 2.557 2.557 0 0 0-.061-.216c-.155-.474-.457-.8-.828-1.044.072-.223.069-.488.075-.707.01-.433-.1-.917-.281-1.305-.007-.014-.031-.007-.031.007.02.436.055.858.01 1.298-.017.171-.062.35-.086.525a4.827 4.827 0 0 0-1.267-.374c.148-.625-.113-1.45-.264-2.013-.004-.013-.024-.01-.024.004.048.398.041.8.02 1.198-.01.254-.068.505-.075.756-.333-.048-.663-.083-.958-.12-.192-.024-.388-.038-.58-.062.137-.313.072-.721.048-1.054a5.922 5.922 0 0 0-.334-1.618c-.006-.017-.037-.017-.037.007.024.54.044 1.072.02 1.614-.013.326-.127.694-.065 1.016-.498-.054-.996-.113-1.497-.158.254-.745.075-1.62-.1-2.366-.007-.027-.055-.024-.051.007.03.773-.138 1.566-.09 2.335-.017-.003-.034-.003-.055-.006a5.42 5.42 0 0 1-1.098-.536c.003-.035.013-.069.006-.096-.037-.179-.11-.344-.171-.515-.11-.3-.213-.598-.333-.89-.007-.017-.042-.017-.038.007.034.271.079.543.12.814.024.154.045.306.065.457-.834-.55-1.638-1.189-2.6-1.484a2.787 2.787 0 0 0-.556-.103c.481-.237.88-.567 1.309-.992zm-2.947 1.727c1.075-.409 2.105-.264 3.087.292.615.35 1.226.845 1.869 1.222a36.823 36.823 0 0 0-2.133-.051c-.306.003-.611.02-.913.062.037-.155.061-.316.068-.474 0-.017-.024-.028-.034-.014a2.57 2.57 0 0 0-.32.536 4.465 4.465 0 0 0-.999.292c.004-.086.004-.175.007-.261.014-.282-.01-.567.007-.848 0-.021-.031-.025-.034-.004-.048.24-.13.477-.186.718-.041.175-.11.37-.103.556a3 3 0 0 0-.632.47c-.027-.126-.082-.25-.134-.377-.13-.306-.247-.635-.415-.924-.01-.017-.045-.01-.041.01.03.268.11.526.168.79.044.213.082.46.196.653a7.244 7.244 0 0 0-.46-.285c-.104-.594-.564-1.02-1.093-1.34.722-.175 1.395-.755 2.095-1.023zm-3.939.714c.92.354 1.666.742 2.335 1.36a6.648 6.648 0 0 0-1.236-.374c-.027-.048-.065-.09-.103-.137-.048-.059-.1-.12-.158-.169-.051-.044-.1-.065-.13-.134-.02-.04-.08-.017-.08.021a.55.55 0 0 0 .114.35 8.306 8.306 0 0 0-.972-.086c-.25-.226-.584-.412-.882-.549-.052-.024-.096.034-.059.076.138.157.299.319.467.47-.21.003-.422.014-.632.027a6.377 6.377 0 0 0-1.071-.635c-.017-.007-.03.01-.02.024.202.234.429.447.669.65-.127.013-.25.027-.378.044-.587-.697-1.112-1.312-1.445-2.136 1.208.35 2.403.745 3.581 1.198zm-22.5 11.652c-.529-.72-1.253-1.246-2.136-1.202-.415-2.462 1.518-4.46 2.957-6.23 1.212-1.49 2.25-3.258 1.995-5.215a4.001 4.001 0 0 0 3.585-2.363c1.806 1.078 3.826 1.566 5.938 1.5 1.24-.04 2.479-.226 3.719-.047.982.137 1.748.566 2.51 1.122.02.052.041.103.065.152.028.192.052.38.059.576.013.413.02.873.134 1.278-.275.062-.55.127-.818.196-.56.144-1.116.295-1.672.446-.106-.134-.25-.244-.367-.37-.042-.042-.124 0-.1.058.051.13.093.267.14.398l-1.242.336c-.097-.209-.261-.391-.392-.576a.053.053 0 0 0-.096.04c.038.207.055.43.12.636-.333.093-.67.182-1.003.271a.286.286 0 0 0-.013-.051c-.186-.378-.375-.81-.673-1.113-.028-.027-.08-.007-.076.031.017.422.203.855.35 1.243-.374.1-.817.186-1.27.296-.08-.206-.213-.402-.313-.588-.195-.374-.44-.72-.649-1.088-.027-.048-.106-.014-.09.038.145.394.255.796.41 1.191.068.175.127.378.216.56a5.14 5.14 0 0 0-.965.364c-.161-.343-.436-.656-.67-.941-.347-.43-.752-.81-1.164-1.178-.02-.017-.048.01-.03.031.356.416.672.862.96 1.329.193.31.337.67.54.975a2.04 2.04 0 0 0-.543.53c-.199.301-.333.62-.419.95-.134-.25-.419-.453-.631-.614a6.82 6.82 0 0 0-1.367-.78c-.048-.02-.093.048-.041.072.429.223.796.505 1.143.845.258.25.477.683.824.814-.144.882.038 1.83.364 2.74-.759-1.023-1.95-1.645-3.197-2.057-.034-.013-.048.042-.017.055 1.552.642 2.661 1.975 3.716 3.228.007.007.017 0 .024.004.25.508.525.985.783 1.408.312.511.649 1.01.985 1.507-1.449-1.191-3.252-1.96-5.089-2.362-.041-.01-.058.051-.017.065 2.469.82 4.495 2.393 6.343 4.162.446.71.834 1.446 1.195 2.198-.382-.337-.807-.632-1.178-.893-.91-.642-1.965-1.058-3.002-1.442-.03-.01-.051.04-.02.051 1.013.433 1.892 1.058 2.757 1.738.574.45 1.061 1.054 1.618 1.535-1.556-.326-3.084-.756-4.55-1.38-1.786-.76-3.397-2.205-5.402-2.308-.99-.052-1.72.309-2.26.913a28.009 28.009 0 0 0-1.978-3.084zm13.42 29.39c-1.977-.842-3.303-2.367-4.415-4.16-1.134-1.826-2.384-3.756-2.257-5.988.042-.701.1-1.395-.243-1.985 1.236.295 2.366.793 3.341 1.521-.628-.24-1.552-.37-2.091.076-.024.017-.007.054.017.061.59.182 1.233.114 1.837.296.663.199 1.222.635 1.755 1.068.216.278.419.577.604.896-.529-.553-1.329-.82-2.108-.738-.031.003-.042.048-.007.058.961.285 1.73.82 2.486 1.456.038.03.117.003.096-.055a2.168 2.168 0 0 0-.213-.405c.031-.01.055-.038.042-.076-.873-2.366-2.858-4.09-5.285-4.701-1.536-.385-3.14-.323-4.664-.77a8.346 8.346 0 0 1-2.105-.981c-.285-.179-.58-.512-.896-.76 1.703-.12 3.578.279 5.058.626.083.017.107-.093.034-.12-1.998-.79-4.004-1.436-6.16-.941a4.298 4.298 0 0 0-2.212 1.26c.017-.08.038-.155.055-.234.004.01.004.024.01.035.01.02.042.02.055.007.21-.193.292-.454.45-.69.248-.378.601-.674.982-.904.845-.515 1.992-.536 2.943-.58.045-.004.055-.065.01-.08-1.102-.343-2.183-.336-3.213.21-.303.162-.69.478-.962.849.03-.131.062-.265.093-.392l.298-1.222c1.034-.75 2.099-.928 3.407-.952.055 0 .09-.089.03-.116-.923-.41-1.84-.31-2.763.068a3.922 3.922 0 0 0-.492.24l.344-1.414c.034-.148.069-.302.1-.457.693-.453 1.62-.446 2.434-.453.069 0 .107-.107.038-.138-.704-.309-1.394-.285-2.122-.075-.076.02-.151.051-.227.086.12-.546.275-1.096.546-1.556.237.093.577.017.817.024.58.02 1.15.162 1.731.186.09.003.103-.11.041-.155-.638-.464-1.48-.567-2.263-.498.56-.577 1.6-.117 2.315-.508.2.086.409.137.608.223.226.1.446.22.673.32.086.04.178-.042.13-.131-.199-.392-.645-.653-1.095-.677.326-.353.511-.848.67-1.294.106.048.226.086.315.134.22.12.385.333.636.391.044.01.082-.02.086-.065.03-.295-.24-.498-.47-.622a1.365 1.365 0 0 0-.447-.144c.21-.536.477-.961.886-1.264.175.1.36.182.525.3.052.033.11-.025.096-.076a.676.676 0 0 0-.223-.371c1.044-.01 2.108.893 2.771 1.686 1.024 1.222 1.999 2.273 3.417 3.042 1.288.701 2.74 1.058 4.197 1.13.144.007.285-.007.429-.007.12.09.244.176.357.275.2.175.364.388.577.55.041.03.086-.021.075-.059-.072-.309-.302-.573-.58-.772.405-.025.81-.07 1.212-.141l.059-.01c.003.003 0 .006.003.01.31.367.628.741.835 1.178.013.027.051.01.051-.014.017-.47-.106-.92-.402-1.278.546-.13 1.089-.285 1.645-.346.117.27.254.528.357.82.162.45.254.897.354 1.36.007.024.041.024.048 0 .182-.652.113-1.573-.281-2.204.15.003.305.013.46.037.525.086.978.409 1.404.749-.027.312.086.635.141.948.117.662.12 1.329.168 1.995.004.024.031.027.042.007.212-.577.274-1.22.243-1.834a4.574 4.574 0 0 0-.072-.704c.038.03.08.065.117.093.663.498 1.442.81 2.232 1.03h.004c-.145.285-.206.604-.306.92-.21.656-.519 1.278-.793 1.91-.014.027.02.058.044.034a4.75 4.75 0 0 0 1.065-1.58c.161-.38.336-.793.323-1.205.862.203 1.744.275 2.634.302-.258.532-.423 1.102-.677 1.645-.316.673-.694 1.315-1 1.992-.01.02.015.041.032.024.999-.78 1.937-2.318 2.002-3.65.687.017 1.373.02 2.05.051a10.85 10.85 0 0 1 1.518.185c-.134.176-.206.392-.316.629a15.67 15.67 0 0 1-.711 1.288c-.58.958-1.192 1.936-1.91 2.798-.017.021.01.048.032.031.848-.697 1.627-1.418 2.242-2.335.32-.474.59-.979.845-1.49.137-.275.295-.526.305-.804a10.19 10.19 0 0 1 2.954 1.182c-.608 1.068-1.1 2.084-1.903 3.035-.748.883-1.662 1.528-2.551 2.253-.01.007 0 .024.01.02 2.074-.68 4.21-2.946 4.797-5.068 1.244.82 2.339 1.902 3.263 3.225-.344.302-.567.78-.842 1.133-.377.484-.807.93-1.253 1.353-.927.882-2.02 1.617-3.142 2.225-.041.02-.014.09.03.076a9.393 9.393 0 0 0 3.294-1.793 10.383 10.383 0 0 0 1.442-1.49c.237-.296.54-.632.721-1 .007.01.01.024.018.035-2.075 3.544-4.726 7.04-8.228 9.22-1.36.556-2.858.886-4.31 1.308-1.291.378-2.62.89-3.661 1.762a8.86 8.86 0 0 0-1.113 1.13c.117-.179.217-.371.285-.546.19-.491.248-.958.172-1.477-.017-.103-.182-.096-.202 0-.09.409-.19.818-.31 1.22-.061.205-.164.408-.254.61a1.53 1.53 0 0 0-.278.505c-.086-.429-.271-.862-.367-1.267-.206-.858-.306-1.755-.354-2.637-.003-.031-.051-.041-.058-.007a8.923 8.923 0 0 0-.072 2.438c.055.495.113 1.154.343 1.666-.165-.141-.337-.275-.501-.42-.426-.37-.794-.81-1.127-1.26a6.997 6.997 0 0 1-1.27-2.956c-.007-.042-.08-.031-.076.01.1 1.137.398 2.17.975 3.163.206.353.485.748.81 1.105-.765-.405-1.441-.91-2.015-1.662-.852-1.112-1.483-2.52-2.005-3.815-.01-.027-.055-.017-.048.014.456 1.631.834 3.135 1.916 4.488.364.457.845.9 1.384 1.223-1.15-.24-2.287-.47-3.376-.93zm5.293 6.328c-1.353 1.793-2.133 3.901-3.874 5.392-1.854 1.59-4.756 2.778-6.415 4.718.44-.872.965-1.693 1.686-2.407.903-.893 1.79-1.666 2.164-2.92.01-.03-.038-.044-.048-.013-.533 1.326-1.985 2.119-2.94 3.153.793-1.302 1.672-2.573 2.208-3.884.694-1.697 1.154-3.483 1.879-5.169.635-1.483 1.504-2.699 2.706-3.722.377.075.759.123 1.143.165-1.992.851-3.403 3.094-3.705 5.144-.007.038.048.058.062.017.37-1.319 1.164-2.476 2.129-3.43.742-.735 1.658-1.216 2.59-1.663.215.007.435.024.652.021-.22.326-.433.66-.646.992a.259.259 0 0 0-.034.169c-.481.178-.928.556-1.292.851-.652.533-1.157 1.27-1.473 2.05-.014.038.041.052.059.025.467-.615.968-1.137 1.548-1.645.423-.371.996-.598 1.453-.928.57.488 1.236.855 1.947 1.072-1.504-.282-3.098.93-3.548 2.325-.01.034.042.068.066.037.443-.566.94-1.05 1.552-1.432.663-.418 1.449-.57 2.19-.79.028-.01.035-.034.028-.054.052.013.1.03.151.044-.896.406-1.675 1.137-2.239 1.882zm7.221 8.386c-1.057-1.645-2.218-3.224-2.967-5.044-.673-1.639-1.191-4.379.619-5.42l.092-.03c-.353.395-.522 1.01-.57 1.497-.117 1.188.237 2.184.629 3.286.013.035.058.02.055-.013a13.895 13.895 0 0 1-.224-2.559c.007-.457.117-.9.261-1.329.127-.374.388-.652.478-1.033.003-.014 0-.028 0-.042a4.77 4.77 0 0 1 .961-.182c-.535 1.79-.058 3.915.842 5.502.013.024.051.007.04-.018a17.733 17.733 0 0 1-.559-2.774c-.113-.907-.027-1.82-.038-2.727.299.007.601.055.903.134.107.608.474 1.164.704 1.73.327.801.553 1.629.794 2.456.007.02.034.014.034-.003.038-.88-.13-1.734-.391-2.572-.155-.488-.35-1.051-.684-1.47.227.079.453.168.677.268.137.175.316.34.432.498.289.391.543.803.746 1.243.01.024.044.007.04-.017a3.726 3.726 0 0 0-.483-1.38c.192.095.384.192.566.28.004.004.007 0 .01.004.715.938.886 2.36 1.024 3.458.216 1.731.244 3.482.144 5.22a28.472 28.472 0 0 1-1.408 7.298c.12-.68.09-1.402.058-2.099-.075-1.724-.494-3.31-.999-4.948-.007-.024-.048-.014-.041.01.336 1.422.457 2.923.553 4.382.03.512.044 1.02.027 1.525-.36-1.8-1.294-3.53-2.325-5.13zm8.349 12.62c-.272 1.456-1.415 2.562-2.068 3.88-.171-.827-.336-1.658-.504-2.49.154.021.388.011.504-.092.014-.014.024-.041.017-.058a1.56 1.56 0 0 0 .062-.1c.038-.01.02-.062-.017-.055a.198.198 0 0 0-.13.09c-.13-.066-.327-.073-.457-.055-.014.003-.017.013-.028.017-.061-.306-.127-.608-.188-.91a.2.2 0 0 0 .075-.004c.151-.038.299-.062.447-.106.027-.007.024-.041 0-.052-.148-.055-.3-.096-.447-.144a.128.128 0 0 0-.134.02c-.106-.514-.21-1.03-.32-1.545.09-.003.176-.003.265-.007.179-.006.344-.072.522-.072.086 0 .086-.127 0-.134-.161-.013-.316-.082-.477-.106-.127-.02-.254-.03-.381-.041-.093-.433-.2-.859-.296-1.288.024.01.042.03.076.03.178 0 .326-.06.488-.133.085-.041.051-.161-.024-.189-.155-.051-.3-.096-.46-.075a.2.2 0 0 0-.141.079c-.124-.536-.248-1.075-.382-1.608.151.038.296.08.454.035.024-.007.037-.035.024-.059-.086-.144-.22-.22-.36-.302-.08-.044-.135-.079-.22-.075a72.552 72.552 0 0 0-.454-1.697c.086.01.179.01.268.02.271.025.532.052.797-.023.058-.017.068-.096.017-.13-.234-.145-.495-.193-.76-.245-.164-.034-.322-.089-.47-.058-.006-.003-.006-.014-.013-.014.164-.563.312-1.13.446-1.7.148.049.299.097.45.08.124-.014.206-.155.106-.255-.127-.127-.298-.192-.467-.254.1-.467.193-.937.272-1.411.068.02.14.027.22.034.044.004.154-.051.147-.106-.02-.165-.165-.244-.32-.275.131-.859.23-1.724.279-2.603a27.394 27.394 0 0 0-.316-5.756c-.103-.645-.289-1.284-.608-1.823.374.261.752.519 1.14.745a6 6 0 0 0 1.446.601v.004c-.069.367-.106.745-.148 1.122a7.378 7.378 0 0 0-1.408-.546c-.034-.01-.065.035-.034.059.405.343.838.611 1.301.862.028.014.059.014.09.017-.035.426-.052.855-.059 1.288a.887.887 0 0 0-.285-.124 3.699 3.699 0 0 1-.6-.22c-.056-.024-.11.024-.083.083.144.281.6.72.955.584-.007.456.003.91.013 1.366-.312-.13-.628-.254-.965-.32-.051-.01-.085.049-.051.087.285.309.642.508 1.02.68.017.474.038.94.058 1.404a1.968 1.968 0 0 0-.594-.14c-.103-.01-.161.137-.086.206.19.164.45.357.7.401h.004c.017.36.045.721.069 1.079-.058-.018-.117-.035-.168-.052a1.422 1.422 0 0 0-.601-.034c-.042.007-.045.058-.024.086a1.5 1.5 0 0 0 .453.36c.12.062.247.124.381.155.058.652.13 1.308.213 1.957a5.29 5.29 0 0 0-.567-.062c-.058-.003-.065.07-.027.1.21.161.422.299.656.412.072.532.154 1.065.244 1.597a2.84 2.84 0 0 0-.478-.062c-.092-.003-.147.124-.079.186.172.15.378.281.58.391.025.014.045.014.066.02.02.117.038.234.058.347.066.364.148.728.224 1.092a4.89 4.89 0 0 0-.797-.16c-.09-.011-.107.116-.041.154.292.185.6.357.934.463.106.481.223.958.34 1.432a3.263 3.263 0 0 0-.886-.058c-.062.007-.086.082-.031.117.295.192.676.36 1.04.429.179.666.395 1.34.515 2.023a1.83 1.83 0 0 0-.336-.01c-.034.003-.058.047-.031.071.127.107.268.19.415.261a4.55 4.55 0 0 1-.03 1.312zm9.08-16.388c0-.024.006-.051.003-.079.007.042.02.08.027.12l-.03-.04zm-.578-1.92c.186.375.316.766.426 1.161-.388-.91-1.394-1.63-2.112-2.215a.034.034 0 0 0-.048.048c.532.636 1.044 1.233 1.473 1.893a9.433 9.433 0 0 0-1.936-1.69 8.206 8.206 0 0 0-2.198-1.013c1.068.01 2.15.003 3.17-.227.394.69.872 1.326 1.225 2.044zm19.063-17.517c-3.578.87-4.917 5.066-7.407 7.404-1.748 1.642-3.997 1.442-6.178 1.937-1.01.23-1.947.759-2.63 1.511a2.399 2.399 0 0 0-.385.446c-.546.814-.82 1.683-1.532 2.408-1.779 1.82-4.711 1.387-7.022 1.408-1.237.01-2.487.075-3.71-.138-1.13-.195-2.07-.827-3.004-1.452-.337-.223-.7-.46-1.078-.68a4.233 4.233 0 0 1-.437-1.278c-.003-.02-.034-.013-.037.007-.031.378.024.742.144 1.089-.783-.426-1.631-.76-2.48-.776a4.16 4.16 0 0 0-1.136-.055c.003-.01.014-.014.014-.024a3.147 3.147 0 0 0-.086-.763c-.01-.03-.055-.03-.066 0a3.38 3.38 0 0 0-.092.763c0 .017.017.03.027.048-.24.03-.487.079-.742.158-.875.275-1.638.501-2.568.426-.144-.014-.289-.048-.433-.076-.007-.065-.017-.134-.02-.206-.01-.285-.031-.594.037-.876.007-.02-.027-.034-.034-.013-.12.254-.216.47-.265.755a1.46 1.46 0 0 0-.017.282 4.624 4.624 0 0 1-1.748-.951c.004-.028-.007-.052-.037-.059.83-1.27 1.693-2.503 2.977-3.358.045-.031.096-.052.144-.083-.512.728-.852 1.56-.903 2.35-.003.033.048.047.065.016.433-.817.838-1.6 1.432-2.318.223-.271.478-.501.742-.717.639-.255 1.302-.46 1.964-.643.004 0 .007.004.01.004l.09-.02c-.622.738-.975 1.668-.752 2.643.007.031.055.031.062 0 .223-.923.49-1.651 1.143-2.369.175-.196.375-.367.577-.536.285-.086.563-.171.838-.274l.144-.045c-.206.786-.1 1.72.134 2.441.02.062.107.049.114-.013.048-.666.02-1.305.154-1.965a2.55 2.55 0 0 1 .268-.683 11.956 11.956 0 0 0 1.514-.635c-.116.59.031 1.27.279 1.782.024.052.113.014.092-.041-.247-.756.031-1.45.32-2.133.216-.134.422-.281.621-.436.158.299.36.58.553.848.31.436.68.814 1.03 1.22.031.034.083-.01.062-.049-.264-.529-.498-1.057-.81-1.559a6.55 6.55 0 0 0-.515-.731 4.81 4.81 0 0 0 .748-.855c.144-.127.272-.272.412-.402.083.065.165.13.227.189.36.336.707.67 1.044 1.033.048.055.117-.013.093-.072a4.95 4.95 0 0 0-1.01-1.497c.25-.244.512-.474.752-.731.186-.172.36-.354.546-.526.161.124.409.11.604.158.389.1.742.278 1.096.457.051.027.124-.03.086-.086-.213-.316-.519-.522-.869-.663a1.81 1.81 0 0 0-.646-.134c1.298-1.246 2.566-2.53 3.857-3.763.123-.12.254-.23.381-.347a.208.208 0 0 0-.072.103c-.107.32.37.24.532.237.457-.007 1.003.178 1.388.426.024.017.061-.017.044-.045-.412-.604-1.034-.855-1.765-.773a.28.28 0 0 0-.124.045 71.392 71.392 0 0 1 3.036-2.64l.32-.227c.034.302.305.642.401.896.175.453.268.934.36 1.408.008.027.049.027.056 0 .127-.508.103-1.013-.02-1.518-.073-.302-.193-.824-.488-1.01.422-.302.844-.604 1.27-.9.028.18.124.581.134.615.065.234.103.474.14.715.1.618.083 1.25.159 1.868.003.027.044.048.058.017.491-1.044.364-2.435-.192-3.424.412-.288.82-.577 1.222-.872-.092.31-.14.642-.161.975-.051.979.158 1.927-.09 2.892-.147.584-.504 1.02-.868 1.466-.546.46-1.157.835-1.91 1.027-1.428.364-3.79-.1-4.934 1.047l-.004.004a2.16 2.16 0 0 0-.556 1.013c-.014.048.062.082.082.034a2.2 2.2 0 0 1 .876-.982c.546 0 1.061-.038 1.621.124.683.195 1.226.577 1.751 1.037.049.04.13-.014.093-.069-.494-.714-1.397-1.35-2.321-1.507a5.85 5.85 0 0 1 1.143-.1c.498.003.986.02 1.467.003 1.181.53 2.407.904 3.506 1.635.048.03.1-.038.062-.079-.646-.676-1.474-1.336-2.39-1.693a4.32 4.32 0 0 0 .765-.247c.254-.114.495-.254.721-.42.1-.016.2-.037.32-.061a9.513 9.513 0 0 1 1.703-.216c1.082-.042 2.164.195 3.2.474.104.027.166-.117.073-.172-.934-.56-1.94-.776-3.019-.797a7.21 7.21 0 0 0-1.507.107c.158-.155.312-.313.46-.474.385-.162.755-.388 1.126-.557a15.005 15.005 0 0 1 2.28-.81c1.456-.392 2.902-.337 4.379-.529.065-.01.086-.096.017-.12-1.411-.48-3.121-.23-4.54.117-.752.182-1.473.46-2.177.776-.03.014-.065.03-.1.048.1-.107.203-.213.303-.323 1.27-.996 2.482-1.988 3.935-2.744 1.652-.858 3.345-1.356 5.148-1.765.034-.007.027-.062-.01-.062-1.755.048-3.575.574-5.148 1.333-.522.25-1.051.546-1.566.872a51.328 51.328 0 0 1 2.42-2.153c.018.017.042.024.066.007.282-.21.546-.443.793-.697a53.134 53.134 0 0 1 7.724-5.097c-.993 1.865-.09 4.516.666 6.398.333.831.625 1.669.793 2.551.186.993-.017 1.982-.15 2.968-.142 1.085-.015 2.314.751 3.094zm-.062-6.27a10.094 10.094 0 0 0-.367-1.415c.048-.093.086-.2.113-.247.08-.138.186-.265.296-.382.116-.123.264-.206.377-.326.017-.017.007-.051-.02-.048-.302.007-.684.289-.897.608-.14-.388-.309-.817-.48-1.27.017-.035.03-.07.051-.11.086-.203.268-.347.45-.46.364-.234.862-.248 1.264-.392.027-.01.027-.048 0-.055-.557-.162-1.158-.103-1.638.237a1.448 1.448 0 0 0-.306.295 16.766 16.766 0 0 1-.453-1.425c.408-.872 1.878-.604 2.61-.44.03.007.058-.03.03-.055-.56-.48-1.277-.573-1.988-.467-.268.042-.59.172-.79.371-.127-.645-.178-1.28-.082-1.871.388-.58 1.11-.81 1.84-.69.797.127 1.405.724 1.859 1.353.024.034.068.013.065-.028-.168-1.126-1.195-1.79-2.27-1.871a1.826 1.826 0 0 0-1.209.35c.25-.498.65-.938 1.267-1.281.035-.02.059-.045.083-.069a1.57 1.57 0 0 1 .924.134c.81.357 1.253 1.226 1.603 1.982.704 1.51 1.343 3.053 2.002 4.58-2.019-.068-3.757 1.137-4.334 2.992z"/></defs><g fill="none" fill-rule="evenodd"><use fill="#FFA28A" xlink:href="#a"/><use fill="#FFCEC5" xlink:href="#a"/><use fill="#BB946A" xlink:href="#a"/><use fill="#FFA28A" xlink:href="#b"/><use fill="#FFCEC5" xlink:href="#b"/><use fill="#BB946A" xlink:href="#b"/><use fill="#FFA28A" xlink:href="#c"/><use fill="#FFCEC5" xlink:href="#c"/><use fill="#BB946A" xlink:href="#c"/><g><use fill="#FFA28A" xlink:href="#d"/><use fill="#FFCEC5" xlink:href="#d"/><use fill="#BB946A" xlink:href="#d"/></g><g><use fill="#FFA28A" xlink:href="#e"/><use fill="#FFCEC5" xlink:href="#e"/><use fill="#BB946A" xlink:href="#e"/></g><g><use fill="#FFA28A" xlink:href="#f"/><use fill="#FFCEC5" xlink:href="#f"/><use fill="#BB946A" xlink:href="#f"/></g><g><use fill="#FFA28A" xlink:href="#g"/><use fill="#FFCEC5" xlink:href="#g"/><use fill="#BB946A" xlink:href="#g"/></g></g></svg>