<svg width="90" height="72" xmlns="http://www.w3.org/2000/svg" xmlns:xlink="http://www.w3.org/1999/xlink"><script xmlns=""/><defs><path d="M45.453 7.555c.324.23.691.527 1.098.469.097-.016.117-.133.082-.203-.168-.364-.63-.47-.973-.621-.5-.227-1.027-.395-1.531-.61-.024-.012-.047.024-.024.035.461.297.903.614 1.348.93z" id="a"/><path d="M63.082 7.324c.027.004.047-.012.05-.04a.056.056 0 0 1 .036-.042c.14-.11-.14-.297-.184-.106-.02.083 0 .172.098.188z" id="b"/><path d="M89.906 39.418c-1.566-1.453-.086-4.035-.66-5.852-.508-1.597-2.387-2.277-3.856-2.597-.965-.211-1.93-.352-2.863-.688-1.125-.402-1.863-1.324-2.621-2.187-.738-.84-1.934-1.922-3.133-1.926.078-.043.16-.086.254-.125.2-.082.348-.363.14-.535-2.304-1.89-5.144-3.301-8.12-3.742.918-1.473.722-3.739.05-5.254-.746-1.688-2.265-2.801-3.254-4.317-.035-.281-.078-.562-.117-.844-.25-1.671-.828-3.398-2.07-4.59-1.703-1.632-4.023-1.796-6.29-1.492a.314.314 0 0 0-.109-.164c-1.156-.89-2.378-1.699-3.574-2.535-1.054-.738-1.758-.781-2.926-.242-2.617 1.21-5.347 1.66-8.152 2.164-.5-.191-1.008-.37-1.512-.547-1.41-.492-2.84-.945-4.265-1.39-.719-.227-1.45-.473-2.184-.696-.37-.183-.746-.359-1.12-.52-.384-.163-1.274-.636-1.688-.523-.149.04-.332.211-.485.352-.925.512-1.793 1.148-2.664 1.742-.527.36-1.05.719-1.578 1.074-.387.266-.433.29-.402.766.156 2.531-.59 5.04-1.371 7.414-.352 1.066-.743 2.168-1.098 3.29-.188-.868-.906-1.665-1.523-2.266-.747-.73-1.657-1.122-2.688-1.22-2.293-.206-4.441 1.434-6.277 2.56-2.266 1.39-4.797 1.726-7.246 2.64-1.668.621-3.286 1.469-4.649 2.605-.722.457-1.402 1.02-1.808 1.641a.254.254 0 0 0 0 .258c.12.18.218.383.308.586.598 2.527 2.035 4.87 3.692 6.832.941 1.113 2.035 2.086 3.203 2.953 1.234.918 2.773 1.504 3.832 2.633.617.656.672 1.578 1.035 2.363.297.637.715 1.133 1.258 1.578 1.254 1.027 2.87 1.692 4.289 2.453l.258.14c-1.696-.534-3.54-.593-5.332-.21-3.16.676-5.621 2.95-6.946 5.836-3.289 7.172.641 14.793 4.102 21.05.074.134.227.18.367.15 1.102-.231 2.2-.462 3.301-.688.574 1.34 1.652 2.433 3.031 2.953a5.5 5.5 0 0 0 2.313.363c1.125-.066 2.156-.594 3.3-.558.985.03 1.934.664 2.868.925.41.114.836.149 1.261.145.02.008.04.02.059.02.039.007.07-.005.098-.02a9.34 9.34 0 0 0 1.652-.223c2.332-.504 4.621-1.488 6.879-2.254 3.605-1.222 7.222-2.426 10.828-3.66 5.351-.676 10.172 1.563 15.223 2.902 4.199 1.114 8.617 1.153 12.867.278 4.09-.844 8.289-2.64 11.488-5.364.582-.496 1.176-1.242 1.199-2.046.031-1.047-.52-1.887-1.008-2.774-1.222-2.219-1.273-4.906-.84-7.344.422-2.36 1.356-4.605 2.258-6.816.05-.129-.031-.305-.148-.363-2.262-1.184-4.72-1.758-7.184-1.582.66-.23 1.32-.446 1.996-.637a37.61 37.61 0 0 1 8.14-1.36c.247-.003.419-.32.212-.515zM75.808 25.289c-.883-.242-2.059.074-2.758.39-.004.005 0 .008.004.008.637-.168 1.25-.171 1.899-.07.37.059.734.223 1.101.313-.664.55-1.031 1.332-1.012 2.277.012.492.079.953.11 1.414a1.648 1.648 0 0 0-.863-.629c-.055-.02-.102.059-.06.098.423.398.735.86.907 1.383-.012.125-.015.25-.043.382-.09.434-.262.844-.469 1.239a1.342 1.342 0 0 0-.105-.328c-.285-.598-.856-.97-1.45-1.227-.015-.008-.034.012-.019.027.328.317.645.606.883 1.004.266.45.234.89.18 1.371-.16.223-.328.438-.5.64-.23.274-.485.528-.742.782.003-.738-.415-1.508-.965-1.973-.024-.02-.07.008-.047.036.562.75.582 1.55.523 2.402-.32.289-.648.57-.984.844.074-.504-.07-1.07-.363-1.414-.024-.028-.07.003-.059.035.117.39.148.722.086 1.125-.04.261-.148.492-.25.722-.422.329-.844.653-1.254.973-.078.063-.164.121-.242.184-.004-.352-.094-.707-.184-1.032-.011-.039-.062-.027-.066.008-.043.442-.086.895-.23 1.317-.012.035-.036.07-.051.105-.602.457-1.207.91-1.82 1.348.007-.02.023-.031.03-.055.122-.285.16-.637.036-.93-.004-.011-.024-.007-.028.004-.113.516-.382.942-.636 1.391-.434.305-.864.61-1.301.906-.012-.183-.063-.36-.172-.472-.027-.028-.086-.016-.094.023-.02.137-.008.27-.031.406-.02.106-.055.203-.09.305-.422.281-.848.555-1.273.828a.697.697 0 0 0-.024-.144c-.008-.024-.043-.04-.062-.016a.987.987 0 0 0-.176.332c-.586.375-1.172.738-1.766 1.098.036-.16.047-.325.016-.48-.004-.016-.023-.013-.027 0-.067.257-.196.476-.336.69a92.624 92.624 0 0 1-5.649 3.133c-.879.446-1.757.891-2.672 1.258-.82.332-1.699.48-2.511.836-.266.117-.516.3-.715.527.094-.343.238-.675.441-.988.672-1.035 1.922-1.652 2.989-2.219.105.016.21.028.316.047.246.04.461.164.68.278a.049.049 0 0 0 .066-.067 1.204 1.204 0 0 0-.617-.5c.394-.21.781-.426 1.172-.644.16.07.363.078.527.117.27.062.5.172.758.258.023.007.05-.02.043-.043-.094-.243-.418-.524-.754-.653.496-.285.988-.578 1.477-.879l.148.036c.375.105.719.28 1.07.445.036.016.094-.024.063-.063-.219-.3-.516-.52-.844-.687.485-.3.961-.613 1.434-.93.21.047.445.051.64.102.067.02.52.336.57.222.122-.265-.366-.566-.554-.668-.027-.015-.066-.023-.098-.035a44.71 44.71 0 0 0 1.243-.879c.117.047.257.063.37.086.153.028.36.078.481.184.027.023.082 0 .067-.04-.043-.1-.055-.179-.13-.269a.926.926 0 0 0-.273-.218.449.449 0 0 0-.11-.036c.376-.28.74-.57 1.102-.863.145.043.282.035.438.055.082.012.297.11.36.02.113-.157-.208-.344-.313-.383-.024-.008-.051-.012-.074-.02.421-.352.832-.715 1.238-1.082.062.02.125.031.172.047.164.043.312.121.484.14.078.008.125-.093.09-.152-.094-.152-.281-.242-.465-.277.445-.41.875-.836 1.3-1.266.095-.008.192-.023.286-.035.215-.027.371-.05.55-.18.067-.046.06-.144-.023-.171a.862.862 0 0 0-.406-.036c.414-.437.824-.879 1.219-1.34 1.668-1.945 3.316-4.167 4.059-6.644.05-.164-.18-.246-.266-.113-.809 1.265-1.578 2.523-2.398 3.75a1.216 1.216 0 0 0-.145-.469c.281-.352.398-.914.582-1.3a6.887 6.887 0 0 1 1.316-1.81c.016-.015-.003-.038-.023-.027a7.633 7.633 0 0 0-1.488 1.48c-.215.282-.57.763-.707 1.212a2.843 2.843 0 0 0-.594-.524c.133-.129.18-.273.285-.492.219-.445.453-.879.715-1.305.61-.996 1.457-1.714 2.43-2.34.039-.027.007-.081-.036-.062-.988.43-1.859 1.14-2.562 1.957-.402.465-1.121 1.406-1.055 2.113a3.082 3.082 0 0 0-.976-.3c.37-.493.59-1.215.851-1.735.383-.758.828-1.48 1.32-2.172.016-.023-.019-.05-.038-.027-.59.629-1.133 1.289-1.626 2-.363.523-.898 1.23-.968 1.902a4.57 4.57 0 0 0-.727.047c.211-.258.422-.555.5-.867 1.602-1.977 1.965-4.813 1.785-7.535 3.246.511 6.301 1.539 8.957 3.453zM58.73 47.078a14.677 14.677 0 0 1-4.055 2.973c.32-.477.547-1.024.653-1.52.007-.035-.043-.05-.059-.015-.23.609-.648 1.117-1.117 1.558-.23.215-.485.383-.746.543-.758.3-1.54.55-2.344.742.894-.578 1.508-1.78 1.816-2.68.008-.027-.03-.035-.039-.011-.27.64-.68 1.2-1.191 1.668-.473.43-1.063.715-1.516 1.16a.111.111 0 0 0-.035.067c-.043.007-.09.02-.133.027a.154.154 0 0 0-.02-.055s0-.004-.003-.004a2.1 2.1 0 0 0 .226-.433c.172-.43.27-.883.25-1.344-.003-.035-.054-.047-.066-.008a5.043 5.043 0 0 1-.41 1.125c-.047.09-.117.184-.188.281a3.616 3.616 0 0 1-.375-1.18c.106-1.476 2.758-1.75 3.844-2.21 1.563-.66 3.07-1.457 4.567-2.254a83.54 83.54 0 0 0 3.765-2.152 32.79 32.79 0 0 0-.613.769c-.742.941-1.516 1.93-2.211 2.953zm-11.75 4.785c-.691-.41-1.39-.777-2.02-1.304a6.707 6.707 0 0 1-1.828-2.481c-.007-.02-.039-.008-.035.016.426 1.457 1.453 3.05 2.871 3.789a34.244 34.244 0 0 1-3.41-.235c-.445-.32-.906-.617-1.328-.972a7.6 7.6 0 0 1-1.621-1.895c-.012-.015-.035-.004-.027.016.41.945 1.066 2.023 1.941 2.734a81.082 81.082 0 0 1-2.766-.39c-1.046-.797-2.074-1.567-2.71-2.786-.012-.023-.047-.004-.036.024.407.937.989 1.922 1.79 2.601-.774-.14-1.532-.32-2.278-.523-.676-.652-1.219-1.371-1.59-2.281-.015-.035-.066-.031-.066.008-.05.718.215 1.437.676 1.988-.078-.027-.164-.043-.242-.07a4.694 4.694 0 0 1-1.446-.797c.031-.043.031-.11-.023-.137a1.35 1.35 0 0 1-.41-.277c-.067-.075-.125-.157-.188-.235-.351-.613-.039-1.469.606-1.906.953-.648 2.238-.371 3.304-.293 1.965.145 3.88-.398 5.668-1.16 1.918-.816 3.676-1.98 5.473-3.031a37.754 37.754 0 0 1 5.82-2.758 35.945 35.945 0 0 1 4.258-1.285c.281-.067.895-.055 1.063-.344.445-.762.691-1.453 1.316-2.117.664-.707 1.527-1.211 2.438-1.527 1.492-.52 3.214.136 4.64-.442a24.196 24.196 0 0 1-1.379 1.68c-.21.234-.441.449-.66.68.047-.395.004-.774-.16-1.051-.004-.004-.008-.004-.008 0-.191.52-.2 1.07-.434 1.59-.03.066-.07.128-.105.19-.496.485-1.008.95-1.531 1.403.433-.875.66-1.86.672-2.8 0-.028-.04-.032-.047-.008-.363 1.511-1.063 2.695-1.93 3.882-.402.32-.805.645-1.219.95.567-1.043.86-2.356.856-3.36 0-.031-.047-.035-.055-.008-.23.84-.469 1.664-.824 2.465-.254.563-.637 1.059-.942 1.586-.253.176-.5.363-.753.535-.16.11-.329.211-.493.317.446-.86.684-1.832.739-2.801 0-.024-.036-.027-.04-.004-.273 1.137-.75 2.148-1.265 3.168-.527.336-1.063.668-1.602.988.368-.773.395-1.734.22-2.547-.009-.027-.052-.023-.052.008 0 1.117-.437 1.985-.859 2.942-.227.128-.445.265-.672.394-.144.082-.289.156-.434.234.125-.59.06-1.265-.05-1.78-.008-.032-.059-.024-.059.007.02.473-.05.941-.164 1.398-.055.227-.148.438-.238.653-.403.215-.801.43-1.196.652.196-.453.235-1 .227-1.453 0-.031-.047-.031-.05 0-.06.707-.458 1.207-.762 1.79-.309.187-.61.382-.899.593-.016.012-.023.023-.039.035.09-.418.137-.852.215-1.234.008-.032-.035-.043-.047-.012-.172.496-.45 1.05-.566 1.594a4.555 4.555 0 0 0-1 1.336 67.641 67.641 0 0 0-.364-1.27c-.008-.027-.05-.023-.047.008.024.539.047 1.086.09 1.621.012.145.016.297.028.441-.223.954-.047 1.961.636 2.84-.363-.351-.828-.633-1.191-.96a9.937 9.937 0 0 1-1.742-2.051c-.008-.012-.02 0-.016.007.356.778.785 1.493 1.313 2.164.273.352.652.79 1.074 1.098-.672.094-1.344.14-2.016.16zM27.847 43.75c-.574-1.68-.809-3.465-.492-5.234.004-.012-.012-.016-.016-.004a7.691 7.691 0 0 0-.48 3.261 14.437 14.437 0 0 1-.989-3.78c-.382-3.27.438-7.509-1.73-10.263.351.195.695.418 1.031.676 2.555 1.976 4.246 4.84 6.86 6.758 2.96 2.172 7.039 1.57 9.996 3.601.168.125.34.242.492.383.16.149.308.309.457.469.015.02.027.031.043.05-.805.364-1.606.731-2.41 1.09 0-.015 0-.03.004-.05-.004-.047-.004-.098-.012-.145-.008-.074-.078-.144-.074-.219 0-.043-.07-.054-.075-.011-.011.074-.101.175-.12.261-.02.086-.028.172-.036.254-.004.016-.004.035-.008.051l-1.656.75c.129-.355.238-.73.29-1.094.003-.023-.02-.031-.036-.015-.297.386-.547.859-.734 1.308-.004.008.004.012 0 .016-.75.34-1.5.68-2.246 1.02.023-.106.043-.208.07-.298.144-.464.379-.886.57-1.332.008-.015-.012-.042-.031-.03-.379.273-.652.663-.86 1.081-.113.227-.285.543-.277.817-.656.297-1.316.593-1.973.894.102-.203.137-.465.211-.672.227-.66.446-1.336.79-1.945.019-.035-.032-.078-.06-.047-.437.516-.788 1.024-1.136 1.61-.187.316-.496.937-.242 1.273-.969.516-1.687 1.227-1.898 2.172-.27-1.871-.075-3.7.968-5.442.012-.023-.02-.046-.035-.027-1.402 1.445-2.082 3.777-1.5 5.75-.554-.793-1.05-1.586-1.348-2.598-.453-1.539-.335-3.047-.132-4.609.004-.031-.047-.043-.059-.016-.754 1.371-.726 3.051-.39 4.54.097.433.253.902.449 1.363a13.432 13.432 0 0 1-1.176-1.617zm-6.77-24.184c.07.027.141.05.211.078.747.324 1.27.883 1.86 1.398a9.705 9.705 0 0 0 .348 2.754 5.227 5.227 0 0 0-.958-.968c-.011-.008-.023.003-.015.015.726.762.969 1.817 1.496 2.7a725.132 725.132 0 0 1-2.773-2.07c-.012-.009-.024.01-.016.019 3.512 2.886 7.027 5.761 10.773 8.343a77.97 77.97 0 0 0 5.883 3.676c1.77 1 3.582 1.852 5.246 3.008.238.262.484.516.742.758l-.543.246c-.102-.191-.324-.36-.5-.492-2.266-2.492-6.05-2.207-8.95-3.48-2.694-1.184-4.484-3.813-6.44-5.891-.954-1.012-1.973-1.942-3.18-2.645-1.528-.894-3.313-1.203-4.906-1.957-1.645-.777-3.239-2.558-2.332-4.473.71-1.507 2.562-1.351 4.054-1.02zm8.227 9.84l-.004-.004s0-.004.004-.004v.008zm1.168-15.355c-.215-.914-1.059-1.828-2.035-1.688-.414-.27.504-.93.668-.988.41-.149.914.059 1.262.254.68.383 1.078 1.098 1.39 1.836-.719-.785-1.762-1.367-2.82-1.227-.012.004-.012.016 0 .02 2.191.257 3.004 2.14 3.808 4.039.489 1.785 1.247 3.57 2.247 5.101 1.246 1.903 3.101 3.516 4.835 4.973-.597.156-1.187.336-1.78.508 0-.012.007-.016.003-.024a1.027 1.027 0 0 0-.11-.28.062.062 0 0 0-.105 0c-.05.085-.086.187-.11.28-.01.051.009.079.024.11-.164.05-.336.09-.5.14-.129.04-.257.086-.386.13a3.183 3.183 0 0 0-.137-.747c-.012-.035-.059-.031-.07 0-.11.266-.164.551-.2.832-.003.02.012.028.012.047-.535.172-1.066.352-1.601.527.03-.476.144-.96.117-1.437 0-.004-.004-.008-.008-.004-.348.367-.484.906-.574 1.39a.248.248 0 0 0 .039.192c-.356.121-.719.23-1.074.356l-.399.14c.031-.156.012-.328.024-.515.027-.61.109-1.204.214-1.805 0-.008-.007-.008-.007-.004-.325.48-.524.996-.653 1.559-.066.289-.152.656-.008.914-.359.125-.714.25-1.074.379.07-.41.008-.868.04-1.282a6.783 6.783 0 0 1 .507-2.164c.016-.035-.031-.062-.05-.031-.528.887-1.329 2.547-.829 3.61-.332.124-.66.257-.98.402.078-.684-.063-1.383-.086-2.07-.028-.825-.07-1.657-.012-2.477.004-.028-.039-.031-.047-.008-.363 1.402-.777 3.277-.082 4.645-.05.023-.105.039-.152.062l-.215-.152c-.016-1.703-.18-3.399-.176-5.102.004-1.95.211-3.894.567-5.805.293-1.535.89-3.066.523-4.636zm6.637 2.496c-.012.129.148.203.226.086.04-.063.07-.13.11-.192.191-.062.383-.125.574-.18a27.345 27.345 0 0 1 5.137-.976c2.988-.285 6.824-.375 9.05 1.941-1.421.727-2.726 1.684-3.957 2.72-.773.648-1.507 1.343-2.238 2.042.059-.23.113-.465.184-.695.004-.008-.008-.008-.008-.004-.258.434-.57.828-.805 1.277-.004.008-.004.02-.008.032l-.148.14c-.293.285-.574.578-.852.875.036-.113.067-.23.098-.347.137-.555.324-1.106.516-1.641.008-.016-.02-.027-.028-.012-.316.485-.609.977-.898 1.48-.215.372-.399.755-.258 1.173-.308.375-.59.77-.84 1.183.418-1.195.434-2.61.574-3.84.004-.043-.062-.046-.074-.011-.386 1.3-.996 2.746-.976 4.129-.13.027-.258.058-.387.086.328-.594.191-1.438.137-2.086a12.397 12.397 0 0 0-.559-2.692c0-.004-.008-.004-.008 0 .051.903.082 1.79.051 2.692-.016.433-.101.93-.09 1.394-.058-.5-.199-1.012-.312-1.449-.254-.961-.688-1.84-1.09-2.738-.02-.047-.102-.016-.086.035.281.828.434 1.699.586 2.562.055.313.086.645.121.98-.352-.652-.793-1.276-1.168-1.82a11.302 11.302 0 0 0-2.547-2.628c-.043-.032-.078.03-.055.066.645.824 1.27 1.664 1.864 2.523-.168-.191-.336-.386-.512-.57-1.09-1.172-2.43-2.074-3.543-3.207.816.078 1.625 0 2.441-.223 1.282-.347 2.235-1.316 3.372-1.941 2.496-1.379 5.285-1.234 7.882-.273.04.015.063-.047.028-.067-1.965-1.238-4.532-1.324-6.715-.707-1.246.352-2.238 1.082-3.29 1.805-1.21.828-2.613.988-4.03 1.09a5.45 5.45 0 0 1-.7-.989c1.094-.28 2.16-.671 3.23-1.023zm8.996-4.902c.086.062.176.171.293.355.535.844.644 1.723.89 2.637-.128-.008-.253-.008-.378-.012a.523.523 0 0 0-.27-.535c-.02-.008-.039.004-.039.023.004.168-.031.336-.04.5a10.327 10.327 0 0 0-.491 0c-.024-.176-.114-.566-.266-.492-.144.066-.156.316-.133.496-.172.004-.332.012-.496.016-.039-.117-.09-.242-.183-.278h-.004c-.063.067-.067.176-.059.286-.289.011-.566.027-.828.039a19.86 19.86 0 0 0-.68.05c1.582-.55 3.13-1.59 2.684-3.085zm-.14-.04c-.06 2.266-3.071 2.75-4.798 3.41-.39.07-.78.145-1.168.235 1.368-.914 2.692-1.887 4.114-2.723.422-.25.851-.484 1.285-.718.273-.149.437-.239.57-.223 0 .008-.004.012-.004.02zm8.609 1.497c-.598.945-.508 2.171.093 3.152-.707.195-1.386.457-2.039.765a3.664 3.664 0 0 0-.593-.757c.136-.25.21-.547.316-.805l.07-.16c.59-.895 1.23-1.68 2.153-2.196zm.507 3.59c.301.55.622 1.081.813 1.59.383 1.019.574 2.089.605 3.175.02.613-.039 1.23-.125 1.836-.054.375-.207.715-.257 1.086-.754-.035-1.496-.004-2.211.027a.786.786 0 0 0 .082-.262c.004-.03-.035-.062-.067-.05-.105.043-.18.12-.261.195-.051.047-.106.086-.149.133-.14.008-.289.011-.426.015-.12.004-.242.016-.363.024.219-.309.414-.653.567-.98a.041.041 0 0 0-.063-.051c-.367.3-.777.66-1.047 1.054-.004.004 0 .004 0 .008-.355.016-.71.04-1.066.063.39-.489.758-1 1.12-1.504.024-.036-.026-.07-.054-.043-.578.515-1.18 1.023-1.715 1.586-.457.035-.914.074-1.37.117.093-.133.175-.29.218-.356a11.166 11.166 0 0 1 2.133-2.304c.015-.012-.004-.032-.02-.024-1.011.57-2.23 1.465-2.808 2.496-.047.086-.032.164.011.239-.48.05-.96.105-1.441.167.191-.222.383-.445.563-.675.007-.008.015-.012.023-.02a.08.08 0 0 0 .02-.035c.261-.328.527-.656.832-.96.765-.763 1.472-1.59 2.148-2.435.027-.03-.012-.07-.047-.046a32.685 32.685 0 0 0-2.465 2.125c.38-.649.723-1.313 1.082-1.844.649-.95 1.465-1.781 2.348-2.512.742-.613 1.566-1.066 2.39-1.531.329-.106.66-.211 1-.305zm3.622 8.769a.29.29 0 0 0 .101.039c.098.035.2.07.297.11-2.434-.641-4.918.148-6.988 1.41-.008.003 0 .011.004.007 2.164-1.195 4.593-1.261 6.976-1.039-.937 2.567-2.086 5.047-3.281 7.504-.027.047-.066.09-.094.137a.103.103 0 0 0-.011.082l-.098.203c-.2.09-.399.184-.594.273.031-.062.063-.125.094-.175.121-.207.234-.422.36-.63.011-.015-.016-.038-.028-.023-.149.188-.316.36-.469.543-.117.14-.293.282-.34.461l-1.453.668c.051-.101.102-.195.149-.277.383-.7.597-1.442.77-2.215.003-.02-.024-.023-.028-.008-.211.66-.547 1.29-.938 1.86-.226.328-.703.683-.902 1.074l-1.965.902c.059-.14.11-.281.164-.414.246-.586.41-1.207.559-1.824.008-.031-.035-.043-.047-.012-.21.535-.477 1.027-.77 1.524-.19.324-.554.675-.628 1.058-.528.242-1.051.488-1.579.727-.097.043-.195.09-.292.133.164-.43.238-.93.316-1.336.172-.895.113-1.77.066-2.668-.004-.078-.113-.078-.12 0-.067.847-.282 1.695-.47 2.523-.128.563-.421 1.18-.437 1.766-.445.199-.89.402-1.336.601.031-.531-.062-1.098-.121-1.601-.102-.868-.363-1.68-.57-2.528-.012-.043-.075-.023-.067.02.121.82.13 1.68.149 2.508.011.59-.043 1.254.054 1.851-.152.07-.308.14-.46.211-.364-2.055-1.79-3.867-3.489-5.012-.031-.023-.07.028-.043.055 1.445 1.387 2.266 2.992 2.969 4.797-.512-.879-1.387-1.656-2.168-2.234-1.012-.746-2.094-1.293-3.266-1.735-.058-.023-.097.074-.043.102 1.082.547 2.07 1.258 2.98 2.058.06.051.11.106.165.157-1.016-.637-2.133-1.149-3.137-1.7-2.027-1.113-3.984-2.347-5.906-3.628-.523-.348-1.039-.7-1.559-1.055 1.997-.477 4.075-.043 6.106-.254 1.973-.207 3.64-1.27 5.363-2.16a30.533 30.533 0 0 1 5.973-2.313 38.189 38.189 0 0 1 3.164-.718c.719-.133 1.445-.211 2.164-.313 1.617-.062 3.254-.008 4.754.508zm.628-.121c-.054-.043-.117-.07-.175-.106.238-.363.437-.761.597-1.18-.02.063-.035.13-.058.192-.113.367-.238.73-.363 1.094zm7.36 5.77c.277.148.484.366.633.616.129.36.066.778-.18 1.094-.363.469-1.062.543-1.602.563-.972.039-1.89-.13-2.859.043-1.527.273-3.004 1.234-3.926 2.469a7.508 7.508 0 0 0-.629.996c-.207.398-.18.523-.66.632a37.385 37.385 0 0 0-8.96 3.309c-3.86 2-7.481 5.074-12.063 4.984-1.664-.03-3.527-.414-4.66 1.121-.07.098-.125.2-.168.31-.14-1.09.613-1.907 1.598-2.43 2.289-1.215 4.758-2.169 7.12-3.235 4.9-2.215 9.798-4.434 14.696-6.648 2.535-1.149 5.07-2.297 7.605-3.442 1.293-.578 2.711-1.098 4.055-.383zm-33.484-2.16c1.2-.376 2.394-.755 3.602-1.106 2.41-.7 4.851-1.32 7.316-1.793a59.052 59.052 0 0 1 4.043-.618c-1.738.473-3.434 1.137-5.059 1.907-2.023.96-3.843 2.316-6.12 2.609-2.009.262-4.028.027-5.985.644-.324-.222-.649-.445-.969-.671 1.07-.246 2.137-.653 3.172-.973zm1.309-9.544c1.027 1.043 2.246 1.875 3.273 2.934.523.539 1.015 1.109 1.492 1.687.543.664 1.145 1.305 1.629 2.016l.023.035c-.265.066-.527.137-.789.207-.007-.012-.011-.027-.023-.04-1.59-1.69-3.465-3.128-4.828-5.023-.602-.835-1.043-1.742-1.442-2.671.2.312.415.601.665.855zm7.113 6.512l.012-.063c.007.02.027.035.035.055-.02.004-.035.004-.047.008zm6.758-5.41a22.316 22.316 0 0 1 2.414-1.836c-.383.355-.742.726-1.075 1.097-.71.797-1.265 1.696-1.769 2.633-.672 1.25-1.41 2.39-2.848 2.805-.011.004-.02.015-.027.02a54.68 54.68 0 0 0-1.941.359c1.523-1.887 3.425-3.504 5.246-5.078zm-1.559 4.468v.004h-.004c0-.004 0-.004.004-.004zm9.598-.578c.043-.054.07-.12.105-.183a1.075 1.075 0 0 0-.027.191c-.028 0-.051-.008-.078-.008zm-8.38 28.332c.005.008.013.016.016.024-.011-.008-.027-.016-.039-.024h.024zM68.16 15.855c.504.852.77 1.852.867 2.828.102 1.051-.172 2.004-.328 3.024v.02c-.125-.016-.254-.024-.383-.036.05-.101.102-.203.152-.3.075-.141.11-.305.16-.454.016-.043-.042-.074-.074-.043-.109.106-.218.203-.316.32-.098.118-.176.247-.274.364-.023.027-.015.055-.023.082-.21-.016-.426-.02-.637-.024.243-.152.395-.492.493-.738.171-.422.25-.844.28-1.297.005-.031-.046-.039-.054-.008a3.994 3.994 0 0 1-.516 1.184c-.168.27-.48.512-.5.84 0 .008.008.012.008.015l-.164-.003c.723-1.153.426-3.079-.004-4.27-.011-.035-.07-.031-.066.008.062.676.09 1.336.07 2.015-.012.364-.078.727-.14 1.09a26.517 26.517 0 0 0-.547-2.922 9.65 9.65 0 0 0-.23-.785c.19-1.355.128-2.699-.032-4.047.629 1.114 1.613 2.036 2.258 3.137zm-2.461 2.414c-.117.012-.227.059-.274.164-.015.032.004.07.04.07.093 0 .183-.023.277-.011.105.508.2 1.031.277 1.566a.777.777 0 0 0-.312.153c-.024.02-.004.05.023.05.11.008.219.036.328.063.067.496.117 1 .149 1.508-.172-.063-.36-.043-.492.086-.02.02-.004.047.019.05.145.012.285.06.41.126.031.015.055.039.082.058.04.8.024 1.606-.054 2.399a2.188 2.188 0 0 0-.223-.176c-.215-.145-.637-.317-.883-.164-.02.011-.016.035 0 .047.09.066.203.085.305.132.136.063.265.145.379.246.164.145.242.329.347.504a10.787 10.787 0 0 1-.636 2.453c-.246-.343-.621-.574-1.067-.543-.02 0-.027.028-.012.036.383.214.715.53.868.953.004.004.007.004.007.011-.253.551-.57 1.07-.945 1.555-.238-.152-.629-.078-.851.047-.008.004-.004.016.004.016.148.004.289.02.433.054.09.024.172.059.258.09-.191.23-.395.45-.617.66-.332.102-.653.22-.961.348a263.44 263.44 0 0 0-6.551 2.902c.008-.011.012-.02.02-.03.82-.548 1.535-1.255 2.351-1.81a23.873 23.873 0 0 1 2.742-1.625c.098-.05.028-.199-.074-.171-1.344.359-2.89 1.043-4.058 2.03a33.7 33.7 0 0 0 .671-1.226c1.137-1.187 2.438-2.152 3.82-3.039.098-.062.036-.223-.081-.191-1.278.347-2.364 1.113-3.184 2.11.363-.774.7-1.563 1.012-2.36.418-.332.824-.676 1.254-1 .629-.477 1.324-.852 1.98-1.293.082-.055.031-.188-.066-.16-1.028.257-2.09.886-2.871 1.703.285-.774.547-1.555.793-2.344.226-.156.425-.418.613-.594.336-.308.726-.562 1.055-.875.062-.062 0-.172-.086-.148-.422.125-.797.414-1.114.714a6.68 6.68 0 0 0-.277.286c.125-.422.246-.844.36-1.266.28-1.043.503-2.105.703-3.168.167-.894.3-1.789.09-2.687-.317-1.352-1.84-1.793-2.919-1.079-.011.008 0 .024.012.02.969-.578 2.14-.121 2.5.922.29.836-.039 1.851-.21 2.676a50.138 50.138 0 0 1-.919 3.601c.293-1.43.254-2.965-.05-4.273-.012-.043-.07-.031-.075.012a23.27 23.27 0 0 1-.398 3.41c-.211 1.07-.621 2.05-.938 3.078a5.026 5.026 0 0 0-1.015-.348c.535-.5.672-1.449.82-2.136.23-1.07.227-2.137.137-3.22-.004-.027-.043-.03-.047 0-.059.954-.246 1.891-.465 2.817-.11.469-.262.93-.414 1.387-.129.387-.317.687-.293 1.09a8.432 8.432 0 0 0-.453-.079c.23-.37.297-.863.383-1.285a10.29 10.29 0 0 0 .203-2.27c0-.038-.063-.05-.07-.01a15.971 15.971 0 0 1-.52 2.171c-.035.105-.078.21-.121.316.058-.285.094-.574.117-.824a9.726 9.726 0 0 0-.129-2.816 7.606 7.606 0 0 0-.332-1.211c.047-.113.05-.238.078-.367.055-.254.13-.535.262-.754.008-.012-.008-.024-.016-.012-.164.2-.308.367-.41.61-.02.046-.039.097-.058.152-.024-.059-.055-.114-.079-.172.008-.098.008-.195.016-.29.031-.382.117-.753.254-1.112.012-.028-.031-.043-.047-.02a4.585 4.585 0 0 0-.441.953c-.04-.082-.075-.164-.114-.242.102-.535.043-1.11.13-1.648.003-.02-.024-.036-.036-.016-.18.355-.328.781-.344 1.2-.175-.294-.359-.587-.53-.88.304-.605.55-1.172 1.042-1.695.184-.195.39-.379.613-.55.63-.376 1.258-.673 2.032-.833 1.054-.219 2.125-.078 3.125.29 2.195.804 3.257 2.94 3.726 5.089.008.016.008.027.012.039zM63.089 6.98c.223.176.41.371.586.578-.097.043-.152.122-.191.22-.031.077.063.163.137.136.09-.027.183-.047.273-.082.168.234.313.484.442.742a.583.583 0 0 0-.36.176c-.082.086.004.2.106.183.09-.015.175-.02.261-.023.051-.004.098.004.149.012.105.242.2.488.281.742-.176-.04-.36-.047-.516.016-.078.03-.109.175 0 .191.18.031.329.074.493.16.062.035.117.078.175.125.13.442.239.887.348 1.317.39 1.519.414 3.093.402 4.652-.027-.059-.066-.11-.093-.164.066-.871-.207-1.79-.211-2.656 0-.036-.051-.036-.055 0-.066.59-.187 1.257-.164 1.886a6.03 6.03 0 0 0-.344-.484c.14-.297.028-.656-.027-.98-.082-.512-.184-1.02-.277-1.528-.008-.043-.075-.031-.075.012.012.52.012 1.039.032 1.558.007.18-.004.368.011.547-.105-.117-.195-.254-.308-.363.004-.008.011-.012.015-.02.207-.601-.05-1.359-.226-1.949-.215-.699-.54-1.351-.895-1.992-.015-.027-.058-.008-.05.02.269.671.449 1.359.59 2.066.1.508.085 1.074.234 1.57a6.336 6.336 0 0 0-1.739-1.023c-1.675-.656-3.894-.379-5.355.77-.613.394-1.14.937-1.461 1.566.035-.375.082-.75.082-1.125 0-.02-.027-.027-.035-.012-.152.36-.266.742-.387 1.117-.035.11-.082.239-.11.368-.03-.075-.073-.145-.105-.223-.168-.832.117-1.688.723-2.41.145-.172-.031-.387-.23-.301-.395.176-.793.39-1.172.64.066-.226.09-.48.105-.675 0-.012-.016-.016-.02-.008-.124.23-.3.55-.331.844a5.57 5.57 0 0 0-1.227 1.175c.226-.957.336-1.968.434-2.89.003-.027-.036-.027-.047-.008-.438 1.258-.965 2.703-1.02 4.063a2.034 2.034 0 0 0-.137.523c-.129-.11-.285-.188-.425-.285.214-.516.101-1.172.09-1.719a58.733 58.733 0 0 0-.137-2.875c-.004-.039-.059-.039-.063 0-.086.852-.16 1.7-.203 2.559-.027.527-.18 1.218-.074 1.78a6.543 6.543 0 0 0-.793-.339c-.047-1.336-.277-2.668-.496-3.98-.004-.028-.047-.02-.047.007-.027 1.266-.059 2.551.062 3.813a9.187 9.187 0 0 0-1.199-.25c.117-.246-.015-.578-.086-.84a13.054 13.054 0 0 0-.527-1.527c-.016-.035-.066-.024-.059.015a9.97 9.97 0 0 1 .278 1.555c.023.246-.024.547.086.762-.192-.024-.38-.055-.567-.07.063-1.208-.633-2.68-1.441-3.5-.05-.051-.125-.055-.188-.024-2.28 1.16-4.683 2.5-6.582 4.254-.136.035-.27.074-.402.113.145-.176.273-.37.422-.55.328-.4.684-.782 1.047-1.149.844-.852 1.87-1.512 2.879-2.148.011-.008.004-.028-.008-.02-1.067.43-2.008 1.055-2.895 1.777-.656.535-1.808 1.375-2.03 2.27-.095.027-.188.058-.282.086.477-.653.871-1.383 1.41-1.996.758-.864 1.672-1.567 2.656-2.157 2.125-1.277 4.47-1.847 6.82-2.527.04-.012.024-.07-.015-.062-2.387.418-4.89 1.035-7.016 2.23-1.03.578-1.945 1.352-2.746 2.215-.382.414-.797.91-1.132 1.445l.105-.238c.348-.734.8-1.41 1.219-2.106.008-.015-.012-.027-.024-.015-.859.914-1.851 2.234-2.234 3.512-.031.011-.063.02-.098.03.524-1.37 1.145-2.558 2.203-3.632 1.11-1.129 2.47-1.95 3.895-2.617 3.129-1.469 6.656-2.238 9.984-3.117 3.184-.825 7.031-1.98 9.903.261zM49.617 3.492c.492-.184.976-.394 1.453-.61.359-.163.691-.308 1.093-.34.41-.034.868.372 1.184.59 1.086.758 2.16 1.536 3.273 2.255-.921.16-1.82.382-2.648.593-.152.04-.305.078-.457.117.004-.019.02-.035.016-.062a.911.911 0 0 0-.082-.266c-.055-.113-.141-.226-.184-.343-.008-.02-.04-.02-.04.004.005.117-.03.238-.042.355a1.1 1.1 0 0 0 .02.34c.003.023.019.027.03.043-.445.113-.894.23-1.347.344.293-.372.305-.961.164-1.391-.012-.031-.062-.035-.07 0-.063.262-.121.523-.196.781-.066.238-.144.43-.144.672-.445.113-.89.238-1.34.36a3.41 3.41 0 0 0 .332-2.06c-.004-.026-.043-.023-.05 0a9.132 9.132 0 0 1-.876 2.099c-.027.046-.015.09-.015.128-.399.11-.801.22-1.2.336.075-.195.118-.418.176-.617.196-.644.328-1.308.465-1.969.008-.035-.039-.058-.058-.023a31.604 31.604 0 0 0-.844 1.809c-.133.308-.309.632-.305.953 0-.004-.004-.004-.004-.008-.273-.266-.566-.5-.86-.73.083-.008.161-.04.196-.137.195-.547.27-1.156.153-1.73-.004-.028-.047-.024-.051 0-.16.546-.32 1.077-.535 1.609-.012.023.003.043.003.066-.289-.215-.597-.406-.906-.594a.562.562 0 0 0 .117-.3 2.274 2.274 0 0 0-.05-.458c-.008-.035-.059-.039-.075-.011-.058.117-.125.234-.164.363a.562.562 0 0 0-.011.277 18.946 18.946 0 0 0-2.536-1.222c2.18.093 4.38-.47 6.415-1.223zm-23.57 8.555c.683-2.07 1.23-4.188 1.308-6.38.02-.542-.156-.968.336-1.308l1.57-1.09c.489-.34.993-.675 1.48-1.027.337-.2.661-.43.981-.676.239.293.555.54.813.805.39.395.75.785 1.07 1.242.027.04.086.008.067-.039-.301-.656-.743-1.527-1.36-2.05.328.128.656.257.992.359.907.367 1.856.664 2.766.984 1.437.508 2.89.973 4.336 1.461 2.535.852 4.949 1.918 7.203 3.363-.918.282-1.82.598-2.711.938.004-.008.008-.012.008-.02-.012-.422-.426-.613-.746-.812-.434-.266-.992-.426-1.473-.578-.031-.008-.05.039-.023.05.484.207.863.489 1.257.836.258.227.485.54.836.579-.254.097-.511.187-.757.289-.543-.68-1.622-1.079-2.36-1.45a30.79 30.79 0 0 0-3.238-1.402c-.02-.008-.031.024-.016.031.98.43 1.934.926 2.863 1.453.512.29.997.622 1.485.946.297.199.566.43.879.586-.305.132-.606.261-.903.402-.293.14-.593.297-.894.465-.14-.254-.488-.418-.715-.567-.387-.253-.797-.457-1.187-.703-.008-.004-.012.008-.008.012.375.254.715.578 1.047.883.18.164.355.414.57.547-.738.445-1.469.972-2.129 1.582-.039-.395-.336-.848-.496-1.14-.34-.622-.871-1.157-1.363-1.653-.02-.02-.055.008-.04.027.407.547.743 1.16.973 1.805.133.363.25 1.027.567 1.308-.809.82-1.47 1.758-1.844 2.793-.055-.742-.266-1.523-.41-2.152-.297-1.289-.817-2.492-1.344-3.699-.012-.031-.066-.008-.055.023.426 1.122.696 2.32.89 3.504.11.672.2 1.348.267 2.024.05.523.027 1.054.222 1.55.008.02.024.032.035.047a30.51 30.51 0 0 0-1.515.547c.12-1.05-.344-2.254-.64-3.246-.34-1.144-.837-2.258-1.321-3.351-.016-.032-.067-.008-.055.023.43 1.117.754 2.262 1.004 3.43.219 1.035.246 2.3.68 3.258.004.011.02.015.027.023-.316.133-.629.27-.934.418.004-.024.012-.043.004-.066a4.772 4.772 0 0 0-.183-.477c-.063-.625-.535-1.371-.73-1.883-.391-1.031-.778-2.086-1.028-3.16 0-.004-.008-.004-.008.004.192 1.098.352 2.187.637 3.27.016.054.027.117.043.179a9.878 9.878 0 0 0-.496-.973c-.215-1.558-1.39-3.386-3.012-3.402-.652-.008-1.371.57-1.414 1.242-.04.602.438.79.957.86 1.18.757 1.285 2.125.988 3.562-.297 1.438-.62 2.848-.808 4.305-.223 1.742-.356 3.61-.23 5.433-.122-.918-.2-1.847-.247-2.773-.09-1.852.05-3.695.18-5.543 0-.02-.024-.02-.031-.004-.524 1.801-.696 3.676-.696 5.547 0 .5.02.996.055 1.496a22.355 22.355 0 0 1-.422-2.488 28.618 28.618 0 0 1 .05-6.84c.005-.012-.019-.016-.023-.004-.703 2.356-.93 4.68-.648 7.125a22.15 22.15 0 0 0 .691 3.453c.122.434.254.895.41 1.348a7.977 7.977 0 0 1-.273-.504c-.414-.863-.734-1.785-1-2.703-.52-1.785-.715-3.648-.652-5.5.066-1.961.554-3.867 1.062-5.754.461-1.707.95-3.469.688-5.246 0-.008-.012-.004-.012 0-.02 2.223-.66 4.219-1.348 6.3-.593 1.802-.93 3.606-.941 5.505-.012 1.812.309 3.625.852 5.347.25.79.57 1.551.945 2.29.207.414.422.886.687 1.304-1.242-.894-2.476-1.8-3.707-2.715-.062-.16-.117-.324-.172-.484a4.257 4.257 0 0 0-.132-.45 11.337 11.337 0 0 1-.176-.718c-.649-4.195.836-8.172 2.144-12.133zm-9.625 27.652a.554.554 0 0 1 .003-.16c.028-.118.086-.215.102-.34.004-.04-.04-.082-.078-.078-.188.015-.305.191-.305.379 0 .015.004.039.004.058-.41-.219-.82-.445-1.219-.68.028-.046.051-.093.078-.14.055-.098.153-.168.204-.27.03-.062.007-.14-.067-.16-.21-.058-.453.16-.512.383-.23-.14-.46-.281-.68-.434-.058-.043-.105-.09-.163-.136.007-.27-.059-.504.058-.766.094-.207.219-.371.352-.55.047-.063-.016-.173-.094-.165-.469.055-.797.535-.816 1.004a3.952 3.952 0 0 1-.778-1.379c-.218-.652-.383-1.316-.828-1.86-.87-1.062-2.152-1.62-3.289-2.347-1.258-.797-2.387-1.777-3.414-2.848-1.988-2.078-3.273-4.515-4.375-7.129-.023-.16-.008-.32.047-.484.617-.101 1.21-.289 1.86-.305 1.034-.027 1.952.317 2.882.72.047.019.098-.036.055-.071-.946-.875-2.828-1.383-4.223-.961.012-.012.023-.027.035-.04.11-.116.227-.23.344-.339 1.527-1.023 3.086-2.008 4.8-2.703 2.044-.828 4.266-1.086 6.262-2.027 1.98-.934 3.641-2.438 5.778-3.059 1.273-.371 2.629-.211 3.683.621.77.606 1.215 1.566 2.012 2.11.02.015.043.011.059 0a34.85 34.85 0 0 0-.403 1.382 5.313 5.313 0 0 0-.199-.355c-.312-.54-.789-.899-1.254-1.29-.004-.003-.008 0-.008.005.286.433.578.898.825 1.355.148.274.246.715.464.969a17.818 17.818 0 0 0-.359 1.887c-.227-.641-.848-1.297-1.21-1.7-.72-.793-1.634-1.27-2.61-1.66-.024-.012-.04.031-.02.043.883.473 1.649 1.195 2.285 1.965.34.41.614.86.868 1.324.18.328.246.621.574.817.012.007.023 0 .035.003-.008.11-.027.22-.031.329-.59-.965-1.73-1.516-2.903-1.645a4.396 4.396 0 0 0-1.27-.137c-.132-.203-.347-.386-.487-.523a5.41 5.41 0 0 0-1.04-.742c-.003-.004-.011.004-.007.008.304.265.582.582.828.902.09.117.168.27.258.414a3.12 3.12 0 0 0-.75.226 2.676 2.676 0 0 0-1.274 1.204 1.694 1.694 0 0 0-.293-.172c-.586-.278-1.25-.426-1.863-.637-.008-.004-.008.008-.004.008.422.226.844.465 1.262.699.18.102.363.184.543.285a.71.71 0 0 1 .191.164c-.234.653-.23 1.406-.015 2.145.453 1.558 2 2.515 3.398 3.117 1.273.55 2.57.91 3.789 1.484.762 1.157 1.145 2.414 1.348 3.72-.782-1.513-2.305-2.735-3.653-3.626-2.07-1.363-4.585-2.101-6.945-2.785-.004-.004-.008.008-.004.008 2.13.91 4.242 1.785 6.223 3 .937.574 1.8 1.242 2.605 1.988.72.664 1.254 1.414 1.875 2.148.18 1.668.125 3.399.211 5.098-.777-1.527-1.68-2.922-2.937-4.129-1.45-1.39-3.16-2.379-4.98-3.199-.036-.016-.07.035-.032.055 3.254 1.656 6.266 4.754 7.965 7.972.008.016.023.016.035.028.047.578.113 1.148.219 1.71.105.551.258 1.09.433 1.618-.23-.328-.464-.649-.695-.973a41.594 41.594 0 0 0-1.742-2.312c-1.246-1.516-2.867-2.653-4.211-4.07-.004-.004-.008.003-.004.003 1.223 1.5 2.563 2.89 3.742 4.434 1.133 1.48 2.133 3.293 3.551 4.52.117.253.238.503.371.746-1.168-1.012-2.504-1.883-3.676-2.872a55.77 55.77 0 0 1-4.363-4.12c-2.844-2.977-5.266-6.188-7.578-9.583-.008-.015-.031-.004-.023.012 1.796 3.547 4.273 6.902 6.968 9.816a53.718 53.718 0 0 0 4.332 4.157c1.47 1.265 3.102 2.761 4.891 3.543.016.027.031.054.05.082.173.27.364.527.56.785-.29-.172-.614-.285-.926-.426a37.513 37.513 0 0 1-1.543-.754c-1.102-.562-2.16-1.207-3.2-1.879-.011-.008-.02.008-.011.016a22.801 22.801 0 0 0 2.793 2.012c.57.347 1.156.664 1.754.957.453.222.898.496 1.41.492.011 0 .015-.012.027-.016.242.3.492.598.754.883.527.574 1.281 1.477 2.07 1.656h.016c.012.035.027.067.039.098-.184-.016-.363-.043-.547-.07-.246-.106-.504-.196-.734-.325a5.138 5.138 0 0 1-1.274-.988c-.004-.004-.004 0-.004.004.176.332.45.707.782 1.031-1.375-.41-2.633-1.121-3.856-1.945-1.152-.778-2.281-1.594-3.418-2.395 1.813.98 3.649 1.914 5.547 2.68.113.047.168-.125.078-.187-2.164-1.493-4.504-2.731-6.844-3.954.07-.074.121-.168.114-.25a.098.098 0 0 0-.094-.093c-.14-.008-.219.097-.29.199-.374-.195-.741-.395-1.116-.59.047-.05.093-.102.129-.16.03-.047.015-.129-.04-.149-.183-.078-.332.004-.417.137-.329-.172-.66-.344-.985-.52-.101-.054-.207-.105-.308-.16.007-.035.011-.074.027-.109.062-.137.203-.262.226-.41.008-.04-.011-.078-.05-.09-.227-.066-.403.2-.465.379-.008.027-.004.059-.012.086-.422-.211-.844-.43-1.265-.652zm18.543 28.289c.082-.11.05-.239.023-.364a1.456 1.456 0 0 0-.195-.468c-.028-.04-.106-.043-.114.015-.027.164-.004.328.016.493.016.144.05.285.184.351-.696.238-1.395.469-2.09.707.015-.14-.031-.285-.059-.437-.047-.262-.082-.551-.21-.786-.044-.078-.184-.066-.2.028-.035.215-.004.445.031.66.032.203.032.453.14.637-.698.238-1.398.476-2.1.71a2.854 2.854 0 0 1-.239-.722c-.047-.246.035-.535-.078-.758-.008-.015-.027-.02-.04-.012-.226.137-.234.465-.257.704-.031.32.063.636.195.925l-.722.246c-.266.09-.532.168-.797.243-.086-.168-.192-.332-.246-.493-.145-.421-.153-.863-.16-1.304 0-.016-.024-.024-.032-.008-.203.387-.258.84-.172 1.27.036.183.09.43.188.64-.57.14-1.145.234-1.738.258-.067-.145-.145-.29-.184-.438-.137-.492-.203-1.242-.04-1.738.013-.039-.046-.062-.065-.027-.141.289-.282.457-.36.777-.074.293-.078.59-.043.887.016.136.043.32.094.504-.895-.106-1.711-.5-2.559-.805-1.746-.629-3.32.398-5.07.328-1.844-.074-3.54-1.43-4.156-3.129-.063-.176-.215-.265-.399-.226-.921.191-1.84.382-2.757.574.03-.149.058-.297.105-.434.149-.43.356-.855.645-1.207.011-.015-.008-.039-.024-.023-.344.312-.574.617-.824 1.008-.078.12-.164.289-.223.464a4.574 4.574 0 0 1 .059-1.476c.187-.91.734-1.457 1.406-2.035.047-.04-.004-.118-.059-.102-.769.242-1.507.98-1.796 1.738-.133.352-.274.985-.223 1.52-3.137-5.723-6.223-12.141-3.95-18.72 1.04-3.01 3.36-5.343 6.43-6.23 2.653-.765 5.606-.336 8 1.02-.675-.188-1.37-.3-2.02-.363-.019-.004-.023.03-.003.035 1.363.27 2.484.898 3.645 1.531-.473-.16-.946-.3-1.403-.418-1.8-.465-3.59-.398-5.41-.113-.027.004-.02.047.008.047 1.758-.145 3.57.12 5.273.554 1.508.383 2.813 1.098 4.176 1.77l.047.035a28.564 28.564 0 0 0-4.117-1.05c-2.09-.38-5.883-.665-5.965 2.401 0 .028.039.032.047.008.488-3.219 5.394-1.926 7.437-1.433 1.684.402 3.262 1.004 4.84 1.636.887.524 1.84.934 2.832 1.18-1.027-.144-2.086-.168-3.102-.207-2.046-.082-4.019.07-6.03.402-.024.004-.016.04.003.04a79.56 79.56 0 0 1 5.711.081c.98.047 1.961.192 2.941.301-.046.016-.097.031-.144.051-.969.344-1.906.766-2.82 1.23-1.934.985-3.426 2.352-4.97 3.852-.034.035.016.086.052.05 1.535-1.35 3.433-2.398 5.238-3.347 1.242-.648 2.57-1.062 3.863-1.547-.457.317-.879.754-1.238 1.07a25.672 25.672 0 0 0-2.3 2.31c-1.384 1.558-2.313 3.241-3.235 5.093-.024.05.047.094.074.043.996-1.652 2.332-3.242 3.61-4.684a27.66 27.66 0 0 1 2.105-2.12c.45-.41 1.086-.802 1.555-1.266-.313.984-.532 2.02-.856 2.992-.516 1.562-1.066 3.133-1.789 4.613-.016.031.031.059.047.028.726-1.293 1.453-2.586 2.031-3.954.496-1.18 1.043-2.523 1.266-3.828.332.758.644 1.516.82 2.348.297 1.383.285 3-.156 4.348-.016.043.047.054.062.02.813-1.923 1.106-4.528.114-6.49.855.513 1.773.911 2.519 1.606.906.844 1.434 2.153 1.59 3.364.004.035.058.05.066.008.278-1.563-.304-2.926-1.328-3.899l.016.004a74.14 74.14 0 0 0 2.261.5c.278.281.625.516.895.797.426.445.742.96.879 1.57.008.04.066.028.066-.008a3 3 0 0 0-.547-1.87 1.813 1.813 0 0 0-.246-.282c.73.137 1.465.262 2.203.363.664.551 1.344 1.153 1.649 1.965.015.04.066.024.062-.015-.101-.7-.39-1.395-.894-1.844.804.097 1.61.18 2.414.222.156.22.426.352.621.532.137.129.266.242.375.394.094.133.152.29.254.418.02.024.062.02.062-.015-.007-.32-.234-.653-.41-.91a1.474 1.474 0 0 0-.418-.403c.797.035 1.594.047 2.383.02.781.441 1.387.937 1.754 1.812.39.934.156 1.957-.336 2.8-.98 1.673-3.602 1.997-5.309 2.352a41.596 41.596 0 0 1-12.809.61c-.023-.004-.027.035-.003.039 5.101.883 10.237.781 15.261-.567 1.688-.453 3.676-1.445 3.899-3.398a4.02 4.02 0 0 0-.344-2.098c.047.063.098.121.137.184.488.785.68 1.707.668 2.621-.024 1.8-1.195 3.54-2.828 4.254-.004.004 0 .012.004.008 1.71-.645 3.23-2.121 3.414-4.02.093-.945-.078-1.828-.457-2.676.18.258.351.52.52.786.734 1.172 1.28 2.449 1.722 3.757.008.02.039.016.039-.003a10.888 10.888 0 0 0-1.203-3.774c-.184-.344-.41-.758-.676-1.172 1.477 1.14 3.188 1.973 4.969 2.528-.14.035-.277.101-.418.168-.352.16-.602.433-.844.722-.023.028.008.078.043.055.278-.188.63-.336.95-.422.183-.047.359-.07.519-.145a5.58 5.58 0 0 1-1.23 2.848c-.087-.094-.2-.156-.325-.117-.047.016-.054.062-.027.098.05.062.101.117.144.187.008.016.008.035.012.055a8.616 8.616 0 0 1-1.598 1.375l-.023-.059c-.09-.246-.188-.492-.281-.742-.024-.066-.117-.039-.106.027.043.23.094.461.13.692.01.074.019.16.038.238-.594.383-1.23.715-1.883 1.012a.898.898 0 0 0-.078-.395c-.101-.21-.265-.41-.515-.426-.02 0-.032.024-.024.04.145.257.29.503.246.816a.494.494 0 0 0-.004.133c-.777.336-1.562.625-2.304.879a1.244 1.244 0 0 0-.364-.938c-.027-.027-.082 0-.066.04.129.343.129.667.078 1.019l-1.723.586c.036-.157.028-.344.004-.465-.043-.238-.218-.567-.476-.621-.047-.012-.113.035-.09.09.086.203.203.347.21.582.005.187-.144.386-.093.566-.789.27-1.578.535-2.367.805 0-.098-.008-.192-.012-.27-.02-.32-.082-.656-.242-.937-.027-.051-.105-.028-.105.027 0 .305.027.605.007.91-.007.133-.054.277-.07.41l-1.543.524c.027-.41-.2-.969-.414-1.121-.035-.024-.09.007-.086.05.016.29.11.54.066.836-.019.125-.058.266-.062.403-.477.16-.95.324-1.426.484 0-.055 0-.11-.012-.152-.046-.242-.23-.48-.472-.551-.043-.012-.07.039-.043.074.133.149.207.32.172.524-.016.086-.043.168-.063.25l-1.414.48c.008-.305-.058-.637-.297-.8-.031-.02-.082 0-.09.034-.027.149.012.301-.004.454-.015.16-.035.312-.066.468-.5.172-1 .34-1.504.508-.094.043-.21.078-.324.117zm-4.34-19.238h-.004c-.008-.004-.02-.004-.028-.004.008 0 .02.004.032.004zm55.539-4.793c-1.711 4.21-3.399 8.832-1.746 13.332.367.996 1.054 1.847 1.359 2.867.43 1.426-1.145 2.441-2.117 3.129-1.848 1.305-3.88 2.344-5.989 3.14-.636.239-1.28.45-1.93.641-.034-.05-.066-.102-.105-.148-.058-.07-.18.004-.152.09.012.039.031.078.05.117-.503.144-1.007.273-1.519.386a.222.222 0 0 1-.031-.05c-.035-.075-.062-.153-.102-.223-.039-.074-.171-.043-.16.043.008.07.024.14.035.21.004.024.004.052.004.075-.425.09-.847.176-1.277.246a.606.606 0 0 0-.016-.355c-.043-.106-.183-.145-.25-.032a.624.624 0 0 0-.078.442c-.5.074-.996.14-1.5.187 0-.027 0-.054.004-.086 0-.18-.074-.3-.117-.468-.016-.059-.09-.051-.11 0-.05.14-.128.238-.144.39-.008.063-.008.13-.016.192-.503.043-1.003.07-1.507.086a.279.279 0 0 0 .004-.16c-.032-.114-.059-.235-.094-.348-.016-.055-.102-.074-.13-.016-.046.102-.058.23-.128.32-.047.063-.035.145-.016.22a27.85 27.85 0 0 1-1.277-.009.63.63 0 0 0-.094-.601c-.047-.059-.144-.02-.16.043-.05.187-.129.355-.199.535v.008a25.96 25.96 0 0 1-1.46-.106c.062-.18.105-.367.128-.543.02-.144-.145-.214-.234-.097a2.47 2.47 0 0 0-.348.601c-.078-.008-.156-.011-.234-.02-.504-.058-1-.152-1.497-.245.106-.301.184-.618.184-.926 0-.043-.055-.067-.086-.035-.234.246-.41.562-.547.882-.398-.085-.797-.187-1.191-.285.101-.25.187-.523.183-.777 0-.066-.074-.086-.12-.05-.223.175-.395.456-.532.714-.39-.105-.781-.223-1.172-.336.16-.277.223-.605.09-.914-.016-.035-.078-.035-.094 0-.129.277-.27.543-.46.777a156.22 156.22 0 0 1-1.446-.449c.113-.164.23-.324.324-.5.094-.172.266-.37.223-.574-.004-.012-.016-.023-.027-.023-.211.023-.336.238-.477.378-.18.176-.328.383-.48.582-.528-.168-1.055-.332-1.586-.492.117-.133.214-.289.293-.398.046-.067.398-.508.207-.574-.203-.07-.473.25-.606.367-.125.11-.312.273-.414.449a44.897 44.897 0 0 0-1.574-.441c.05-.036.101-.07.148-.11.168-.133.317-.281.442-.457.117-.168.21-.527.379-.644.02-.012.02-.04 0-.055-.028-.02-.059-.035-.086-.055-.035-.02-.09-.015-.117.016a3.909 3.909 0 0 1-.91.809c-.196.125-.41.207-.606.32a25.482 25.482 0 0 0-2.113-.395c.238-.129.46-.273.609-.367.543-.344 1.137-.863 1.36-1.484.015-.04-.032-.067-.063-.051-.55.3-1.031.73-1.574 1.055a6.066 6.066 0 0 1-.985.453c-.215.078-.382.11-.5.254a12.117 12.117 0 0 0-2.226.03c.425-.148.855-.292 1.28-.44 2.169-.754 4.528-1.868 6.052-3.602.547 1.43 1.824 2.312 3.176 3.039 1.789.965 3.73 1.629 5.718 2.05 3.93.84 8.223.493 11.961-.984.11-.043.067-.214-.05-.18a23.495 23.495 0 0 1-11.211.669 21.75 21.75 0 0 1-5.364-1.739c-1.492-.699-3.195-1.644-3.949-3.199a6.179 6.179 0 0 0 1.344-3.633c.008-.144-.102-.273-.238-.312-2.23-.621-4.176-1.719-5.98-3.102 2.136.575 4.26 1.114 6.335 1.922 2.57 1 4.879 2.414 7.09 4.047.07.05.156-.062.094-.121-1.985-1.781-4.313-3.191-6.72-4.316-1.898-.887-4.007-1.582-6.12-1.817 1.132-.047 2.273-.144 3.398-.14 1.836.007 3.676.152 5.496.402 3.613.496 7.059 1.57 10.445 2.887.067.027.113-.086.05-.118-3.234-1.64-6.796-2.648-10.362-3.238a38.713 38.713 0 0 0-5.332-.496c-1.14-.031-2.371-.059-3.567.059 3.872-.797 7.723-1.664 11.652-2.192 4.704-.629 9.575-1.086 13.996.996.086.04.157-.078.075-.125-4.043-2.363-8.97-2.113-13.45-1.562-2.698.332-5.437.75-8.128 1.34.117-.063.238-.118.351-.18.793-.145 1.578-.469 2.328-.73A91.31 91.31 0 0 1 61 48.565c2.13-.66 4.301-1.184 6.489-1.602 4.32-.824 9.011-1.547 13.344-.464.086.023.117-.102.035-.133-4.082-1.496-8.773-.864-12.953-.133a59.691 59.691 0 0 0-6.797 1.621 53.941 53.941 0 0 0-3.855 1.32 10.789 10.789 0 0 0 2.242-2.414c2.43-.039 4.883-.449 7.273-.863a43.988 43.988 0 0 0 7.461-1.965c1.246-.45 2.48-.937 3.719-1.406 2.793-.258 5.687.176 8.207 1.43zm-11.523-.864a44.598 44.598 0 0 1-7.442 2.059c-1.797.34-3.62.535-5.43.816 1.32-.382 2.63-.843 3.926-1.253 2.032-.641 4.063-1.278 6.094-1.918 2.035-.641 4.082-1.254 6.102-1.942.988-.336 1.972-.676 2.965-1.004 1.097-.36 2.21-.492 3.34-.699.042-.008.03-.074-.012-.074-1.942-.02-3.989.55-5.848 1.047-2.156.574-4.281 1.3-6.41 1.969-2.133.671-4.266 1.34-6.399 2.007-1.77.555-3.601 1.047-5.332 1.743.504-.364.977-.766 1.489-1.118.683-.468 1.453-.851 2.191-1.222 1.555-.782 3.223-1.414 4.922-1.797.035-.008.02-.059-.016-.055-1.699.234-3.304.652-4.87 1.363-1.09.493-2.29 1.176-3.298 1.989.121-.16.239-.325.36-.48.437-.563.906-1.106 1.41-1.614.012-.012.023-.02.035-.031 1.996-1.239 4.367-2.055 6.582-2.79 2.273-.757 4.606-1.183 6.95-1.648.015-.004.011-.031-.005-.031-2.492.027-4.984.582-7.359 1.297-.96.289-2 .625-3.008 1.043.258-.176.528-.336.781-.516a123.822 123.822 0 0 0 3.223-2.3c2.7-1.27 5.52-2.204 8.488-2.692.036-.008.028-.063-.007-.059a18.01 18.01 0 0 0-7.012 1.606c.84-.68 1.648-1.39 2.394-2.145 1.461-.847 2.864-1.691 4.434-2.363.031-.016.008-.059-.023-.055a8.518 8.518 0 0 0-3.313 1.2c.328-.45.59-.938.809-1.446.14-.117.27-.258.394-.367.348-.316.621-.687.926-1.043.012-.012-.004-.031-.016-.023-.347.238-.718.445-1.043.718.075-.257.149-.511.192-.78.199-1.321-.48-2.919.41-3.903 1.996-.047 3.016 1.746 4.289 3.078 1.266 1.316 3.008 1.562 4.715 1.91.816.164 1.594.426 2.305.863 1.046.645 1.347 1.704 1.269 2.88-.066 1.066-.336 2.218-.086 3.234a3.742 3.742 0 0 0-1.496-.902c-.008-.005-.012.007-.004.011.461.254.863.574 1.207.969.195.226.32.512.488.758a40.536 40.536 0 0 0-6.632 1.07c-2.614.66-5.106 1.691-7.63 2.64z" id="c"/></defs><g fill="none" fill-rule="evenodd"><g><use fill="#FFA28A" xlink:href="#a"/><use fill="#FFCEC5" xlink:href="#a"/><use fill="#BB946A" xlink:href="#a"/></g><g><use fill="#FFA28A" xlink:href="#b"/><use fill="#FFCEC5" xlink:href="#b"/><use fill="#BB946A" xlink:href="#b"/></g><g><use fill="#FFA28A" xlink:href="#c"/><use fill="#FFCEC5" xlink:href="#c"/><use fill="#BB946A" xlink:href="#c"/></g></g></svg>